<?xml version="1.0" encoding="UTF-8"?>
<svg width="30px" height="30px" viewBox="0 0 30 30" version="1.1" xmlns="http://www.w3.org/2000/svg" xmlns:xlink="http://www.w3.org/1999/xlink">
    <!-- Generator: Sketch 51.3 (57544) - http://www.bohemiancoding.com/sketch -->
    <title>日期</title>
    <desc>Created with Sketch.</desc>
    <defs></defs>
    <g id="日期" stroke="none" stroke-width="1" fill="none" fill-rule="evenodd" opacity="0.5">
        <g id="riqi-6" transform="translate(4.000000, 2.000000)" fill="#000000" fill-rule="nonzero">
            <path d="M9.00036359,4.00851557 L17.0008183,4.00851557 L17.0008183,2.04895473 L9.00036359,2.04895473 L9.00036359,4.00851557 Z M21.0004537,4.00851557 L23.0061915,4.00851557 C23.5502508,4.00851557 24.0007722,4.46436507 24.0007722,5.04572117 L24.0007722,22.0483155 C24.0007722,22.6267116 23.5449227,23.0849292 22.9961273,23.0849292 L3.00505463,23.0849292 C2.45448315,23.0849292 2.0004097,22.6284876 2.0004097,22.0483155 L2.0004097,5.04572117 C2.0004097,4.46436507 2.45270711,4.00851554 3.00860672,4.00851557 L5.04631319,4.00851557 L5.04631319,2.04895473 L3.00860672,2.04895473 C2.21181329,2.04596455 1.44662052,2.36035493 0.882088771,2.92266499 C0.317557018,3.48497504 0.000151773092,4.24892216 0,5.04572117 L0,22.0483155 C0.000626730822,22.8442976 0.317714849,23.6073684 0.881391598,24.1693794 C1.44506835,24.7313905 2.20907417,25.0462189 3.00505463,25.04449 L22.9955353,25.04449 C23.7913174,25.045747 24.5549884,24.7307478 25.1184687,24.1688219 C25.681949,23.606896 25.9990566,22.8440981 25.9999979,22.0483155 L25.9999979,5.04572117 C26.000941,4.25105091 25.6858392,3.48862262 25.1241442,2.92648343 C24.5624492,2.36434424 23.8002703,2.04863983 23.0055995,2.04895473 L21.0004537,2.04895473 L21.0004537,4.00851557 Z M6.00122909,0.974452324 C6.00122909,0.436313101 6.44523834,2.48598932e-08 7.00113792,0 C7.55348544,0 8.00163876,0.436313101 8.00163876,0.974452324 L8.00163876,5.08834607 C8.00163876,5.62589328 7.55762951,6.06220636 7.00113792,6.06220636 C6.4487904,6.06220636 6.00063708,5.62648527 6.00063708,5.08834607 L6.00063708,0.97386031 L6.00122909,0.974452324 Z M18.0013192,0.973268297 C18.0013192,0.436313101 18.4453284,0 19.00182,0 C19.5535755,0 20.0011369,0.435721087 20.0011369,0.973268297 L20.0011369,5.08479399 C20.0011369,5.6223412 19.5571276,6.05806229 19.001228,6.05806229 C18.4488805,6.05806229 18.0013192,5.6223412 18.0013192,5.08479399 L18.0013192,0.973268297 Z M6.00122909,11.9207605 C6.00122909,11.3796612 6.45115848,10.94098 7.00765007,10.94098 L18.9947159,10.94098 C19.5512075,10.94098 20.0011369,11.3761091 20.0011369,11.9207605 C20.0011369,12.4618597 19.5512075,12.9005409 18.9947159,12.9005409 L7.00765007,12.9005409 C6.45115848,12.9005409 6.00063708,12.4654118 6.00063708,11.9207605 L6.00122909,11.9207605 Z M6.00122909,16.9682577 C6.00122909,16.4271584 6.45115848,15.9884772 7.00765007,15.9884772 L18.9947159,15.9884772 C19.5512075,15.9884772 20.0011369,16.4236063 20.0011369,16.9682577 C20.0011369,17.5093569 19.5512075,17.9480381 18.9947159,17.9480381 L7.00765007,17.9480381 C6.45115848,17.9480381 6.00063708,17.513501 6.00063708,16.9682577 L6.00122909,16.9682577 Z" id="Shape"></path>
        </g>
    </g>
</svg>