<?xml version="1.0" encoding="UTF-8"?>
<svg width="30px" height="30px" viewBox="0 0 30 30" version="1.1" xmlns="http://www.w3.org/2000/svg" xmlns:xlink="http://www.w3.org/1999/xlink">
    <!-- Generator: Sketch 51.3 (57544) - http://www.bohemiancoding.com/sketch -->
    <title>用户名</title>
    <desc>Created with Sketch.</desc>
    <defs></defs>
    <g id="用户名" stroke="none" stroke-width="1" fill="none" fill-rule="evenodd">
        <g id="renwu" fill="#666666" fill-rule="nonzero">
            <path d="M15.0002,2.5075093 C13.6194,2.5075093 12.4422,3.00052065 11.4642,3.97853339 C10.4882,4.95634589 9.99919999,6.13921264 9.99919999,7.52232769 L9.99919999,11.2835917 C9.99919999,12.6711122 10.4884,13.8495735 11.4642,14.8315912 C12.4422,15.8096039 13.6194,16.29841 15.0002,16.29841 C16.3802,16.29841 17.5582,15.8096039 18.5354,14.8315912 C19.5114,13.8495735 20.0004,12.6709119 20.0004,11.2835917 L20.0004,7.52232769 C20.0004,6.13901237 19.5112,4.95634587 18.5354,3.97853339 C17.558,3.00052065 16.38,2.5075093 15,2.5075093 L15.0002,2.5075093 Z M15.0002,18.8059193 C13.1898,18.8059193 11.4442,18.9521006 9.76080001,19.2404582 C8.0766,19.5330209 6.60979999,19.9385238 5.35980001,20.4607714 C4.85940001,20.6698306 4.41220002,20.8913052 4.01799999,21.1253955 C3.6252,21.363691 3.32519999,21.5767552 3.11999999,21.7647883 C2.91519998,21.9528215 2.76059998,22.1200288 2.65559999,22.2577997 C2.55139999,22.399976 2.49919999,22.5127158 2.49919999,22.5962193 L2.49919999,25.0744924 C2.49919999,25.4173175 2.62219998,25.7138852 2.86599999,25.9605911 C3.11139998,26.2028916 3.40520001,26.328247 3.74999999,26.328247 L26.25,26.328247 C26.5948,26.328247 26.8882,26.2028916 27.134,25.9605911 C27.3778,25.7138852 27.5008,25.4173175 27.5008,25.0744924 L27.5008,22.6046298 C27.5008,22.5211262 27.4478,22.4083864 27.3436,22.2662101 C27.2396,22.128239 27.0844,21.9612319 26.8798,21.7729985 C26.6748,21.5849654 26.3748,21.3719011 25.9816,21.1336057 C25.5876,20.8997156 25.1398,20.678241 24.6394,20.4607714 C23.3902,19.9385238 21.9226,19.5330209 20.2392,19.2404582 C18.5558,18.9521006 16.8102,18.8059193 15.0002,18.8059193 Z M15.0002,0 C16.3602,0 17.6158,0.338419647 18.7642,1.01125395 C19.9142,1.68408826 20.825,2.59521807 21.4934,3.74864832 C22.1634,4.89807362 22.4996,6.155633 22.4996,7.52232769 L22.4996,11.2835917 C22.4996,12.3282871 22.2984,13.3187152 21.8936,14.2506708 C21.4908,15.1868317 20.9276,15.9976371 20.2046,16.6912972 C22.106,16.9922704 23.7946,17.4310144 25.2732,18.01614 C26.7498,18.6010653 27.9074,19.2907205 28.7442,20.0889103 C29.5804,20.8828948 30,21.7229365 30,22.6046298 L30,25.0744924 C30,26.1109776 29.6338,26.9968761 28.9012,27.7323882 C28.1692,28.4679002 27.284,28.8357563 26.2498,28.8357563 L3.75019999,28.8357563 C2.71599997,28.8357563 1.83099999,28.4679002 1.09879999,27.7323882 C0.366199988,26.9968761 0,26.1109776 0,25.0744924 L0,22.5964196 C0,21.714526 0.418399987,20.8744844 1.25499999,20.0804998 C2.09259998,19.2823101 3.24839998,18.5926549 4.72179999,18.0077296 C6.197,17.422604 7.88439999,16.98386 9.78499999,16.6912972 C9.07122219,15.9940158 8.50087032,15.163414 8.10619998,14.2464656 C7.70159998,13.31451 7.49939999,12.3282871 7.49939999,11.2835917 L7.49939999,7.52232769 C7.49939999,6.16003845 7.83499998,4.89787337 8.5066,3.74864832 C9.17659999,2.59521807 10.0862,1.6800833 11.2354,1.01125395 C12.384,0.338419647 13.638,2.21032023e-15 15.0002,0 Z" id="Shape"></path>
        </g>
    </g>
</svg>