<?xml version="1.0" encoding="UTF-8"?>
<svg width="30px" height="30px" viewBox="0 0 30 30" version="1.1" xmlns="http://www.w3.org/2000/svg" xmlns:xlink="http://www.w3.org/1999/xlink">
    <!-- Generator: Sketch 51.3 (57544) - http://www.bohemiancoding.com/sketch -->
    <title>密码</title>
    <desc>Created with Sketch.</desc>
    <defs></defs>
    <g id="密码" stroke="none" stroke-width="1" fill="none" fill-rule="evenodd">
        <g id="suo-2" transform="translate(2.000000, 0.000000)" fill="#666666" fill-rule="nonzero">
            <path d="M18.7857964,11.5813493 L18.7857964,8.42279951 C18.7857964,4.93396172 15.9822339,2.10569988 12.5238642,2.10569988 C9.06549463,2.10569988 6.26193212,4.93396172 6.26193212,8.42279951 L6.26193212,11.5813493 L18.7857964,11.5813493 Z M2.08727703,13.6870492 L2.08731071,26.3138785 C2.08508809,26.5930162 2.19295078,26.8615961 2.38713983,27.0604582 C2.58132888,27.2593202 2.84591468,27.3721514 3.12261682,27.3740984 L21.9251117,27.3740984 C22.4855546,27.3740984 22.9604178,26.9003159 22.9604178,26.3138785 L22.9604178,13.6944192 L22.9604178,13.6870492 L2.08727703,13.6870492 Z M9.26952163e-16,13.1606242 L9.26952163e-16,12.6341993 C9.26952163e-16,12.0527263 0.467260418,11.5813493 1.04365535,11.5813493 L4.17462142,11.5813493 L4.17462142,8.42279951 C4.17462142,3.77101579 7.91270476,9.35118595e-16 12.5238642,0 C17.1350237,-9.35118595e-16 20.8731071,3.77101579 20.8731071,8.42279951 L20.8731071,11.5813493 L24.0040731,11.5813493 C24.5801709,11.5813493 25.0477285,12.0488147 25.0477285,12.6341993 L25.0477285,27.3804155 C25.0442749,28.5429513 24.1075844,29.4827099 22.9551995,29.4797983 L2.09252898,29.4797983 C0.940144063,29.4827099 0.00345355144,28.5429513 0,27.3804155 L9.26952163e-16,13.1606242 Z M13.5675196,18.9512989 L13.5675196,23.1732272 C13.5675196,23.7480832 13.1041366,24.2155486 12.5238642,24.2155486 C11.9515206,24.2155775 11.4859323,23.7505843 11.4802089,23.1732272 L11.4802089,18.9512989 L10.426117,18.9512989 C10.1505325,18.9504659 9.88662589,18.8389361 9.69273906,18.6413654 C9.49885223,18.4437947 9.39095425,18.1764557 9.39289818,17.898449 C9.39286957,17.3210629 9.85380192,16.8513729 10.426117,16.845599 L14.6216115,16.845599 C15.1914473,16.845599 15.6548303,17.3130644 15.6548303,17.898449 C15.6548589,18.475835 15.1939266,18.945525 14.6216115,18.9512989 L13.5675196,18.9512989 Z" id="Shape"></path>
        </g>
    </g>
</svg>