<?xml version="1.0" encoding="UTF-8"?>
<svg width="28px" height="28px" viewBox="0 0 28 28" version="1.1" xmlns="http://www.w3.org/2000/svg" xmlns:xlink="http://www.w3.org/1999/xlink">
    <!-- Generator: Sketch 51.3 (57544) - http://www.bohemiancoding.com/sketch -->
    <title>清除</title>
    <desc>Created with Sketch.</desc>
    <defs></defs>
    <g id="清除" stroke="none" stroke-width="1" fill="none" fill-rule="evenodd">
        <g id="guanbi-copy" transform="translate(4.000000, 4.000000)" fill="#CACACA" fill-rule="nonzero">
            <path d="M10.0000201,0 C4.47713102,0 0,4.47714213 0,10.0000201 C0,15.5228981 4.47713102,20 10,20 C15.522869,20 20,15.5228981 20,10.0000201 C20,4.47714213 15.5229293,0 10.0000402,0 L10.0000201,0 Z M14.2884267,12.9919888 C14.6464057,13.3500677 14.6464057,13.9304197 14.2884267,14.2884181 C13.9304477,14.6463763 13.3499739,14.6463763 12.9919949,14.2884181 L10.0000201,11.2964293 L7.00794481,14.288398 C6.64994569,14.6463562 6.06961262,14.6463562 5.71163361,14.288398 C5.35353393,13.9303996 5.35353393,13.3500476 5.71163361,12.9919687 L8.70358824,10.0000201 L5.7116135,7.00803128 C5.35353393,6.650053 5.35353393,6.06960041 5.7116135,5.71162213 C6.06961262,5.35364384 6.64994569,5.35364384 7.0079247,5.71162213 L10.0000201,8.70359085 L12.9919949,5.71162213 C13.3499739,5.35364384 13.9304477,5.35364384 14.2884267,5.71162213 C14.6464057,6.06960041 14.6464057,6.650053 14.2884267,7.00803128 L11.2964319,10.0000201 L14.2884267,12.9919888 Z" id="Shape"></path>
        </g>
    </g>
</svg>