<?xml version="1.0" encoding="UTF-8"?>
<svg width="750px" height="638px" viewBox="0 0 750 638" version="1.1" xmlns="http://www.w3.org/2000/svg" xmlns:xlink="http://www.w3.org/1999/xlink">
    <!-- Generator: Sketch 51.3 (57544) - http://www.bohemiancoding.com/sketch -->
    <title>Group 5</title>
    <desc>Created with Sketch.</desc>
    <defs>
        <rect id="path-1" x="0" y="0" width="750" height="638"></rect>
        <linearGradient x1="56.8495727%" y1="0%" x2="100%" y2="84.1683825%" id="linearGradient-3">
            <stop stop-color="#1492FF" stop-opacity="0.65831635" offset="0%"></stop>
            <stop stop-color="#095FAB" offset="100%"></stop>
        </linearGradient>
        <linearGradient x1="50%" y1="0%" x2="50%" y2="100%" id="linearGradient-4">
            <stop stop-color="#5B230E" offset="0%"></stop>
            <stop stop-color="#2F0000" offset="100%"></stop>
        </linearGradient>
        <linearGradient x1="62.6607073%" y1="100%" x2="62.6607073%" y2="11.6193042%" id="linearGradient-5">
            <stop stop-color="#EDF3FB" offset="0%"></stop>
            <stop stop-color="#D6E3F6" offset="100%"></stop>
        </linearGradient>
    </defs>
    <g id="Group-5" stroke="none" stroke-width="1" fill="none" fill-rule="evenodd">
        <g>
            <g id="Group-9">
                <g id="Oval-Copy-2">
                    <mask id="mask-2" fill="white">
                        <use xlink:href="#path-1"></use>
                    </mask>
                    <use id="Mask" fill="#1492FF" xlink:href="#path-1"></use>
                    <circle fill="#51AEFF" opacity="0.206696429" mask="url(#mask-2)" cx="-9" cy="168" r="205"></circle>
                    <circle id="Oval" fill="#51AEFF" opacity="0.29140625" mask="url(#mask-2)" cx="542.5" cy="-200.5" r="326.5"></circle>
                    <circle id="Oval-Copy" fill="#51AEFF" opacity="0.247098214" mask="url(#mask-2)" cx="153.5" cy="-49.5" r="117.5"></circle>
                </g>
            </g>
            <g id="Group-8" transform="translate(300.000000, 173.000000)">
                <g>
                    <g id="Group-32" transform="translate(0.000000, 4.000000)">
                        <g>
                            <g id="Group-25" transform="translate(141.028871, 0.000000)">
                                <g id="Group-14">
                                    <path d="M1.45229553,0.442563715 C2.2301333,-0.147521238 3.27975417,-0.147521238 4.60115813,0.442563715 L97.5354831,51.0362006 C98.9057685,51.9374277 99.9018764,53.0652856 100.523807,54.4197743 C101.145737,55.7742629 101.474324,57.531427 101.509565,59.6912665 L101.509565,117.090016 C101.551523,119.083601 100.899665,120.495273 99.5539923,121.32503 C98.2083195,122.154787 96.8121748,121.754611 95.3655582,120.1245 L3.98407634,65.7999177 C3.00792816,65.0074636 2.16400122,63.9711884 1.45229553,62.6910922 C0.740589847,61.410996 0.256491335,59.0364499 0,55.567454 L0,3.93310414 C0.190359252,2.19616214 0.674457764,1.03264867 1.45229553,0.442563715 Z" id="Rectangle-21-Copy-2" fill="#9EE5FF" opacity="0.8"></path>
                                    <g id="Group-24" transform="translate(15.616856, 16.279837)" stroke="#FFFFFF" stroke-linecap="round">
                                        <path d="M1.06478565,0.3539095 L1.06478565,47.7777825" id="Line-5" stroke-width="8"></path>
                                        <path d="M15.8377661,23.358027 L15.8377661,53.4403345" id="Line-5-Copy" stroke-width="8"></path>
                                        <path d="M27.8323138,16.987656 L27.8323138,63.3498005" id="Line-5-Copy-2" stroke-width="10"></path>
                                        <path d="M38.5446024,43.176959 L38.5446024,68.3045335" id="Line-5-Copy-3" stroke-width="8"></path>
                                        <path d="M50.5419899,41.761321 L50.5419899,76.7983615" id="Line-5-Copy-4" stroke-width="10"></path>
                                        <path d="M64.0291379,36.806588 L64.0291379,84.230461" id="Line-5-Copy-5" stroke-width="8"></path>
                                    </g>
                                </g>
                            </g>
                            <polygon id="Path-21-Copy" fill="url(#linearGradient-3)" opacity="0.678069196" points="217.402251 226.139852 171.234847 177.406754 101.795276 219.076413 202 236.101923"></polygon>
                            <path d="M202.530184,131.625611 L202.530184,215.964809" id="Line-15" stroke="#D6C99B" stroke-width="10" stroke-linecap="round"></path>
                            <path d="M265.650323,135.870146 L265.650323,135.898546 C266.650323,135.898508 266.650323,135.898508 266.650323,135.898406 L266.650323,135.870146 L265.650323,135.870146 Z" id="Rectangle-21" stroke="#FFE401" fill-opacity="0.6" fill="#FFE233" opacity="0.617020089"></path>
                            <path d="M160.297895,75.9148342 C160.315302,75.919712 160.332768,75.924662 160.350293,75.9296844 L160.248801,75.8880835 L160.297882,75.9148272 Z M257.167383,136.16053 L257.167383,136.182393 C258.167383,136.182364 258.167383,136.182364 258.167383,136.182285 L258.167383,136.16053 L257.167383,136.16053 Z" id="Rectangle-21-Copy-5" stroke="#FFE401" fill-opacity="0.4" fill="#FFE233" opacity="0.482924107"></path>
                            <ellipse id="Oval-11" fill="#FFFFFF" opacity="0.80390625" transform="translate(237.522310, 141.329912) rotate(-2.000000) translate(-237.522310, -141.329912) " cx="237.52231" cy="141.329912" rx="10.6036745" ry="14.2917889"></ellipse>
                            <path d="M176.386641,113.639571 L196.862703,124.55691" id="Line-4" stroke="#FFFFFF" stroke-width="4" stroke-linecap="round"></path>
                            <g id="Group-8" transform="translate(286.299213, 165.149560)">
                                <path d="M10.9757729,7.92376137 C10.351487,8.27690733 9.94506864,9.00528445 9.78106567,10.0845933 L9.77862562,48.4373827 C10.0262086,50.9342592 10.4884371,52.6248903 11.1304345,53.485925 C11.8021537,54.3868221 12.595903,55.1135953 13.4987042,55.6604555 L104.720749,106.64562 C106.025324,107.74179 107.216473,107.996375 108.367786,107.467016 C109.527646,106.933727 110.063558,106.068322 110.027157,104.771581 L110.027276,66.8310744 C109.993942,65.3077366 109.687701,64.0865782 109.118202,63.1617265 C108.551067,62.2407157 107.629997,61.4630628 106.315578,60.8173539 L13.7123162,7.96295746 C12.5165029,7.56476999 11.6103921,7.56476999 10.9757729,7.92376137 Z" id="Rectangle-21-Copy" stroke="#EFB1FE" fill-opacity="0.4" fill="#EEB3FC" opacity="0.535212054"></path>
                                <path d="M18.1475054,0.764344027 C17.5232196,1.11748998 17.1168012,1.8458671 16.9527982,2.92517599 L16.9503582,41.2779654 C17.1979411,43.7748418 17.6601697,45.4654729 18.302167,46.3265077 C18.9738862,47.2274048 19.7676355,47.9541779 20.6704367,48.5010382 L111.892481,99.4862025 C113.197056,100.582372 114.388206,100.836957 115.539519,100.307598 C116.699378,99.7743099 117.23529,98.9089043 117.198889,97.6121638 L117.199009,59.671657 C117.165675,58.1483193 116.859434,56.9271608 116.289934,56.0023092 C115.7228,55.0812984 114.80173,54.3036455 113.48731,53.6579365 L20.8840488,0.803540114 C19.6882354,0.405352643 18.7821247,0.405352643 18.1475054,0.764344027 Z" id="Rectangle-21-Copy-4" stroke="#DFB7FF" fill-opacity="0.2" fill="#EEB3FC" opacity="0.246428571"></path>
                                <g id="Group-3" transform="translate(0.000000, 14.318835)">
                                    <path d="M1.69470718,0.764344027 C1.07042137,1.11748998 0.664002962,1.8458671 0.5,2.92517599 L0.497559948,41.2779654 C0.74514288,43.7748418 1.20737141,45.4654729 1.8493688,46.3265077 C2.521088,47.2274048 3.31483728,47.9541779 4.21763849,48.5010382 L95.4396832,99.4862025 C96.7442582,100.582372 97.9354077,100.836957 99.0867208,100.307598 C100.24658,99.7743099 100.782492,98.9089043 100.746091,97.6121638 L100.746211,59.671657 C100.712877,58.1483193 100.406635,56.9271608 99.8371359,56.0023092 C99.2700016,55.0812984 98.3489318,54.3036455 97.0345121,53.6579365 L4.43125054,0.803540114 C3.2354372,0.405352643 2.32932645,0.405352643 1.69470718,0.764344027 Z" id="Rectangle-21-Copy-3" stroke="#E7B9FF" fill-opacity="0.6" fill="#EEB3FC" opacity="0.8"></path>
                                    <path d="M40.8607956,60.2881252 L45.1999952,51.7356991" id="Line-13" stroke="#FFFFFF" stroke-width="2" stroke-linecap="square"></path>
                                    <path d="M45.4925624,51.732564 L83.5986238,72.9255262" id="Line-14" stroke="#FFFFFF" stroke-width="2" stroke-linecap="square"></path>
                                    <path d="M37.9152626,31.9400405 L40.1300624,60.2901006" id="Line-12" stroke="#FFFFFF" stroke-width="2" stroke-linecap="square"></path>
                                    <path d="M31.5696855,43.8689788 L37.1945738,31.9366166" id="Line-11" stroke="#FFFFFF" stroke-width="2" stroke-linecap="square"></path>
                                    <path d="M8.79328239,31.0943322 L19.8277312,37.0605133" id="Line-6" stroke="#FFFFFF" stroke-width="2" stroke-linecap="square"></path>
                                    <path d="M20.1968645,36.2884193 L22.4116643,30.67319" id="Line-7" stroke="#FFFFFF" stroke-width="2" stroke-linecap="square"></path>
                                    <path d="M23.1182909,30.67319 L25.8182372,46.8169742" id="Line-8" stroke="#FFFFFF" stroke-width="2" stroke-linecap="square"></path>
                                    <path d="M26.4932238,46.4022129 L29.5306635,39.1662243" id="Line-9" stroke="#FFFFFF" stroke-width="2" stroke-linecap="square"></path>
                                    <path d="M30.3040856,39.0872601 L31.7103077,43.8777526" id="Line-10" stroke="#FFFFFF" stroke-width="2" stroke-linecap="square"></path>
                                </g>
                            </g>
                            <path d="M176.382486,103.042033 L191.926509,111.158358" id="Line-4-Copy-2" stroke="#FFFFFF" stroke-width="4" stroke-linecap="round"></path>
                            <path d="M176.374453,125.273705 L203.590551,139.741935" id="Line-4-Copy" stroke="#FFFFFF" stroke-width="4" stroke-linecap="round"></path>
                            <g id="Group-30" transform="translate(120.881890, 116.451613)">
                                <ellipse id="Oval-15" fill="#76C8EA" opacity="0.447823661" cx="18.2764458" cy="173.971753" rx="11.9499838" ry="1.76431763"></ellipse>
                                <path d="M13.0575624,124.207961 C12.3191766,133.062874 11.9499838,139.474287 11.9499838,143.442202 C11.9499838,147.410118 12.8574307,153.22706 14.6723245,160.89303 L18.0866958,165.285114 L18.979386,125.280267 L13.0575624,124.207961 Z" id="Path-31" fill="#F2D1C8"></path>
                                <path d="M14.488433,160.200041 C12.7961335,161.450019 11.9499838,162.690134 11.9499838,163.920387 C11.9499838,165.150641 12.3730586,166.484355 13.2192084,167.92153 L13.2192084,174.040319 L14.488433,174.040319 L14.488433,169.242493 L16.7290549,169.242493 L18.2764458,164.996366 L14.488433,160.200041 Z" id="Path-33" fill="#61392D"></path>
                                <path d="M18.2575122,164.434403 L21.8862196,167.478337 L25.9068894,169.601191 L27.2367907,167.017797 L31.63231,167.017797 C30.4785809,170.439991 29.3651729,172.389162 28.2920862,172.86531 C26.6824561,173.579532 24.1312912,173.354531 23.0876027,172.86531 C22.3918103,172.539163 21.2047083,171.810571 19.5262968,170.679537 L19.5262968,174.461748 L18.2575122,174.461748 L18.2575122,170.08022 C17.7281424,169.991428 17.2428524,169.609882 16.8016424,168.935582 C16.3604324,168.261282 16.8457223,166.760889 18.2575122,164.434403 Z" id="Path-34" fill="#370500"></path>
                                <path d="M5.91403392e-13,79.0470632 L5.91403392e-13,83.9127744 C1.97134464e-13,85.3454547 0,86.6837749 0,87.927735 C0,89.1716951 1.64019385,89.9734711 4.92058156,90.3330629 C4.13576537,89.2484197 3.60972908,88.4466438 3.34247269,87.927735 C2.26986786,85.8451503 3.48894922,85.2848689 4.44112562,83.9127744 C5.00915129,83.0942445 5.00915129,80.9999783 4.44112562,77.6299759 L5.91403392e-13,79.0470632 Z" id="Path-30" fill="#F4D2C8"></path>
                                <path d="M26.4964598,14.1145411 C28.0270058,19.7822563 28.4737969,23.2943152 27.8368331,24.6507175 C26.8813875,26.685321 25.3496078,27.2078193 23.5090399,27.6825966 C22.2819947,27.9991148 20.6049858,28.1812767 18.4780134,28.2290821 L15.4646849,14.1145411 L26.4964598,14.1145411 Z" id="Path-27" fill="#F2CBB9"></path>
                                <path d="M18.5526212,17.8610275 C24.5367311,15.9254426 27.528786,14.2701044 27.528786,12.895013 C27.528786,10.8323759 32.0168685,5.34089871 27.528786,3.19042306 C23.0407036,1.03994741 18.4229298,-1.35208422 13.7479393,0.919169417 C9.07294882,3.19042306 4.74888776,5.08365727 4.74888776,12.895013 C4.74888776,20.7063688 1.97196781,28.2604831 4.74888776,30.9583811 C7.52580771,33.656279 9.43676263,37.4035338 16.5190952,37.4035338 C21.2406503,37.4035338 23.6990778,36.5983472 23.8943776,34.987974 C20.3332066,28.850779 18.5526212,25.7821815 18.5526212,25.7821815 C18.5526212,25.7821815 18.5526212,23.1417968 18.5526212,17.8610275 Z" id="Path-26" fill="url(#linearGradient-4)"></path>
                                <path d="M18.1843563,128.425687 C16.8398688,132.238691 16.1676251,136.04407 16.1676251,139.841825 C16.1676251,143.639579 16.8398688,151.999954 18.1843563,164.922949 C20.1924652,166.320174 21.6810092,167.333104 22.6499884,167.96174 C23.6189676,168.590377 24.7385675,169.237099 26.0087882,169.901907 C26.6729178,168.47321 27.0049826,167.578495 27.0049826,167.217763 C27.0049826,166.633339 24.6944777,166.286538 24.6944777,165.724652 C24.6944777,152.916714 24.6944777,144.82944 24.6944777,143.73213 C24.6944777,142.542111 25.1325812,136.739782 26.0087882,126.325143 L18.1843563,128.425687 Z" id="Path-32" fill="#FBE2DA"></path>
                                <path d="M6.45070531,75.5127947 C4.96199599,82.6945163 4.21764133,86.8914164 4.21764133,88.1034949 C4.21764133,89.9216126 11.0637547,116.515105 11.0637547,118.222133 C11.0637547,119.929161 12.4226406,129.148051 17.9138438,129.148051 C21.5746459,129.148051 24.9576808,128.214218 28.0629485,126.346554 C30.4425228,107.673034 31.63231,96.8026616 31.63231,93.7354354 C31.63231,90.6682092 30.8286934,85.8084211 29.2214603,79.1560711 L14.9559411,75.5127947 L6.45070531,75.5127947 Z" id="Path-29" fill="#3F1202"></path>
                                <path d="M5.55501881,31.9536696 L3.20907453,34.1910988 C1.06969151,53.2724913 0,62.8131875 0,62.8131875 C0,62.8131875 0,68.6605248 0,80.3551993 L3.20907453,80.3551993 L5.16630949,76.22989 L6.81671327,60.2553383 L6.81671327,54.9310126 L10.4211888,64.4310331 L6.3104112,76.22989 C7.95066041,77.9088804 9.91797512,79.2839835 12.2123553,80.3551993 C14.5067355,81.4264151 20.3618691,81.4264151 29.777756,80.3551993 L26.8785693,64.4310331 C29.8767633,60.6878135 31.3758603,57.52114 31.3758603,54.9310126 C31.3758603,52.3408852 33.1915417,52.3408852 36.8229045,54.9310126 C44.4056413,57.4560588 49.1032688,58.7185819 50.915787,58.7185819 C53.6345643,58.7185819 55.8179686,53.9862853 55.8179686,52.8431652 C55.8179686,52.0810852 55.8179686,49.5951402 55.8179686,45.3853303 L60.4528591,29.6902604 L55.8179686,28.2290821 C50.8037567,40.4680246 48.2966507,47.016297 48.2966507,47.8738995 C48.2966507,48.731502 47.4309861,48.731502 45.699657,47.8738995 L23.6402351,36.1498335 L15.6657877,36.1498335 L6.81671327,31.9536696 L5.55501881,31.9536696 Z" id="Path-28" fill="#93CDFF"></path>
                                <path d="M54.8293373,31.0519904 L54.8293373,20.0087396 L60.3338636,13.408814 L60.3338636,16.132758 L57.5816005,20.0087396 C60.9016534,23.2335192 62.5616798,24.845909 62.5616798,24.845909 C62.5616798,24.845909 61.8190744,26.9146028 60.3338636,31.0519904 L54.8293373,31.0519904 Z" id="Path-36" fill="#F4D2C8"></path>
                            </g>
                            <g id="Group-29" transform="translate(184.503937, 208.554252)">
                                <polygon id="Path-46" fill="#B5A16E" points="16.0681018 19.2378414 16.0681018 28.3545416 32.5208198 18.1930819 32.5208198 8.03162218"></polygon>
                                <polygon id="Path-47" fill="#EEC865" points="0.138351143 9.35733033 16.3185174 19.2300219 16.3185174 28.5044523 0.138351143 17.9573027"></polygon>
                                <polygon id="Path-45" fill="#F4D993" points="16.1953849 0.0469766307 32.732497 8.16564374 16.1953849 19.2593923 0.213060761 9.55767184"></polygon>
                            </g>
                            <path d="M315.974506,160.34455 L309.627297,155.215391 L309.627297,125.966923 C310.769327,122.446452 312.885063,120.686217 315.974506,120.686217 C320.608671,120.686217 366.763903,148.509033 368.743169,149.732853 C369.629996,150.281195 372.06899,151.55205 372.79944,153.624153 C373.399312,155.325839 373.399312,166.212846 372.79944,186.285172 C372.648451,187.09182 372.098534,187.71316 371.149688,188.149194 C369.726419,188.803244 368.743169,188.149194 368.743169,188.149194 C368.743169,188.149194 354.55769,180.67336 326.186731,165.721694 L315.974506,165.721694 L315.974506,160.34455 Z" id="Path-48" stroke="#B0DFFF" fill-opacity="0.2" fill="#87C5FC" opacity="0.822265625"></path>
                            <path d="M308.551934,167.755107 L302.204724,162.625948 L302.204724,133.37748 C303.346754,129.857009 305.462491,128.096774 308.551934,128.096774 C313.186099,128.096774 359.34133,155.91959 361.320597,157.14341 C362.207423,157.691752 364.646417,158.962607 365.376868,161.03471 C365.97674,162.736397 365.97674,173.623403 365.376868,193.695729 C365.225879,194.502377 364.675962,195.123717 363.727116,195.559751 C362.303846,196.213801 361.320597,195.559751 361.320597,195.559751 C361.320597,195.559751 347.135118,188.083918 318.764159,173.132251 L308.551934,173.132251 L308.551934,167.755107 Z" id="Path-48-Copy" stroke="#DEEEFF" fill="#87C5FC" opacity="0.503571429"></path>
                            <g id="Group-31" transform="translate(324.472441, 163.032258)" fill="#FFFFFF">
                                <ellipse id="Oval-14" cx="3.49145381" cy="3.5918517" rx="3.49145381" ry="3.5918517"></ellipse>
                                <ellipse id="Oval-14-Copy" cx="13.2675245" cy="9.33881441" rx="3.49145381" ry="3.5918517"></ellipse>
                                <ellipse id="Oval-14-Copy-2" cx="25.1384674" cy="16.5225178" rx="3.49145381" ry="3.5918517"></ellipse>
                            </g>
                            <g id="Group-18" transform="translate(225.858268, 2.117302)">
                                <path d="M59.0672203,72.8440854 C61.0784216,61.226184 60.9727134,62.3222125 64.500896,62.3222125 C68.0290786,62.3222125 75.8034358,65.9011933 75.8034358,69.0500348 C75.8034358,72.1988762 80.276128,84.4619867 80.276128,84.4619867 C80.276128,84.4619867 84.7488202,90.9306224 80.276128,93.3873804 C75.8034358,95.8441385 73.7908616,98.0361953 70.8852591,96.9401669 C68.9481908,96.2094813 66.8200697,95.0252191 64.500896,93.3873804 C59.5376446,87.4371179 57.7264194,80.5893529 59.0672203,72.8440854 Z" id="Path-50" fill="#FFFFFF" opacity="0.6"></path>
                                <polyline id="Path-51" stroke="#53B1FA" stroke-width="2" opacity="0.407087054" stroke-linecap="round" points="69.2821827 69.0291489 69.2821827 77.5999314 64.9674597 73.3145401 72.1391923 81.1803399 72.1391923 87.5491644"></polyline>
                                <polyline id="Path-52" stroke="#53B1FA" stroke-width="2" opacity="0.321651786" stroke-linecap="round" points="70.4517258 79.551885 67.9205261 85.0881174 67.9205261 91.3373494"></polyline>
                                <path d="M84.4278689,83.3446823 C87.3037685,77.8578513 90.1679798,76.1253297 93.9609374,77.450145 C97.753895,78.7749602 101.790507,85.8593653 102.818576,88.2685562 C103.846646,90.6777471 105.044787,105.881612 105.044787,107.553044 C105.044787,109.224476 105.057976,113.64555 102.818576,113.64555 C100.579176,113.64555 83.1040822,100.882002 83.1040822,98.1635698 C83.1040822,95.4451379 81.5519692,88.8315134 84.4278689,83.3446823 Z" id="Path-53" fill="#FFFFFF" opacity="0.6"></path>
                                <polyline id="Path-54" stroke="#53B1FA" stroke-width="2" opacity="0.368303571" stroke-linecap="round" points="94.0762566 83.34007 94.0762566 96.5133904 95.5743764 106.330202 98.2949228 109.015546"></polyline>
                                <polyline id="Path-55" stroke="#53B1FA" stroke-width="2" opacity="0.275279018" stroke-linecap="round" points="99.1386561 92.6000777 95.201417 96.8091722 91.1231902 92.6000777"></polyline>
                                <path d="M79.3790737,53.03459 C78.2086635,61.527151 77.6234584,67.694831 77.6234584,71.5376298 C77.6234584,75.3804286 78.2086635,78.8783202 79.3790737,82.0313047 L84.6790128,83.4025487 L86.3310939,68.8186941 L88.5919905,57.617206 L79.3790737,53.03459 Z" id="Path-56" fill-opacity="0.6" fill="#FFFFFF"></path>
                                <g id="Group-17">
                                    <path d="M1.90495508,1.32910658 C4.07809686,-0.443035526 6.54430866,-0.443035526 9.30359046,1.32910658 C11.9962575,3.05846548 46.4700997,22.902538 112.725117,60.8613241 C114.364223,61.8003995 115.460981,62.7691124 116.673176,65.1912275 C117.481305,66.8059708 117.761816,68.5527346 117.514707,70.4315187 L115.595383,139.741935 L1.90495508,72.1294858 C0.634985025,70.2757078 1.93816549e-16,67.4698161 0,63.7118108 C0,59.9538055 0.634985025,39.1595708 1.90495508,1.32910658 Z" id="Path-49" stroke="#A7E6FF" fill-opacity="0.8" fill="#9EE5FF" opacity="0.392857143"></path>
                                    <g id="Group-16" transform="translate(6.749866, 31.989118)" opacity="0.673270089" stroke="#FFFFFF" stroke-linecap="round" stroke-width="6">
                                        <path d="M0,14.7318305 L31.21813,30.30548" id="Line-4-Copy-5"></path>
                                        <path d="M0,0 L22.7807976,12.2063739" id="Line-4-Copy-4"></path>
                                        <path d="M0,29.0427517 L41.7647955,51.7718616" id="Line-4-Copy-3"></path>
                                    </g>
                                </g>
                            </g>
                        </g>
                    </g>
                    <path d="M77,68 L97,68 C99.209139,68 101,69.790861 101,72 C101,74.209139 99.209139,76 97,76 L71,76 C68.790861,76 67,74.209139 67,72 C67,69.790861 68.790861,68 71,68 L72.0000002,68 C72.5522847,68 73,67.1045695 73,66 C73,64.8954305 72.5522847,64 72,64 L55,64 C52.790861,64 51,62.209139 51,60 C51,57.790861 52.790861,56 55,56 L81,56 C83.209139,56 85,57.790861 85,60 C85,62.209139 83.209139,64 81,64 L77,64 L77,68 Z" id="Combined-Shape" fill="#DAECFF" opacity="0.245033482"></path>
                    <path d="M358,20 C358,15.4939706 363.629167,10 370.905041,10 C375.755624,10 378.888879,10.8443452 380.304805,12.5330355 C387.059717,2.11631255 394.965675,-1.80708419 404.022677,0.762845235 C417.608182,4.61773937 418.986928,11.7926665 418.986928,20 C418.986928,20 358,20 358,20 Z" id="Path-12" fill="url(#linearGradient-5)" opacity="0.427399554"></path>
                </g>
            </g>
        </g>
    </g>
</svg>