<?xml version="1.0" encoding="UTF-8"?>
<svg width="28px" height="28px" viewBox="0 0 28 28" version="1.1" xmlns="http://www.w3.org/2000/svg" xmlns:xlink="http://www.w3.org/1999/xlink">
    <!-- Generator: Sketch 51.3 (57544) - http://www.bohemiancoding.com/sketch -->
    <title>形状</title>
    <desc>Created with Sketch.</desc>
    <defs></defs>
    <g id="Page-1" stroke="none" stroke-width="1" fill="none" fill-rule="evenodd" fill-opacity="0.8">
        <g id="年限核定2-copy" transform="translate(-51.000000, -443.000000)" fill="#FFFFFF">
            <g id="Group" transform="translate(20.000000, 240.000000)">
                <g id="Group-8" transform="translate(30.000000, 201.000000)">
                    <g id="Group-6">
                        <g id="工作" transform="translate(0.000000, 1.000000)">
                            <g id="gongzuo-3" transform="translate(1.000000, 1.000000)">
                                <path d="M27.9800089,14.8536402 C27.3363218,15.306333 26.5416849,15.7148514 25.6050458,16.0728134 C23.0973095,17.0310704 19.5609564,17.6243263 15.7362503,17.7596961 C15.6472134,17.9673654 15.5218547,18.1525095 15.3594235,18.3146905 C14.9997095,18.6739665 14.5452648,18.8536983 13.9959017,18.8536983 C13.4858011,18.8536983 13.0492827,18.6681788 12.6863777,18.2977341 C12.5278257,18.1358659 12.4039374,17.9559777 12.3146503,17.7580693 C12.2882458,17.7571307 12.2619665,17.7564425 12.2354994,17.7554413 C6.9058324,17.5549989 2.50388827,16.5139933 0.158301676,14.8992849 C0.112188362,14.8674611 0.0664261947,14.8351314 0.0210234637,14.8023017 L0.00503687151,14.789819 L0.00503687151,25.4377654 C0.00503687151,26.8385475 1.1446838,27.9781944 2.54546592,27.9781944 L25.4556291,27.9781944 C26.8564112,27.9781944 27.9960581,26.8385475 27.9960581,25.4377654 L27.9960581,14.8413453 L27.9800089,14.8536402 Z" id="Shape" fill-rule="nonzero"></path>
                                <path d="M1.2475486,13.3170816 C3.27083799,14.7099486 7.4054838,15.651562 12.3077363,15.835924 C12.3485006,15.837457 12.3891397,15.8385207 12.4298726,15.8399285 C12.5069602,15.7186527 12.5979945,15.6068286 12.7011128,15.5067441 C13.0739352,15.143714 13.5184939,14.9621989 14.0352581,14.9621989 C14.558248,14.9621989 14.9997408,15.1476246 15.3594547,15.5181318 C15.4556954,15.6170721 15.5410103,15.7260809 15.6139263,15.843276 C19.2482011,15.7214525 22.5833922,15.171057 24.9194056,14.2784045 C25.9980782,13.866257 26.822248,13.3977341 27.3688581,12.8859128 C27.6622168,12.6112313 27.8644737,12.3344849 27.9800089,12.0501363 L27.9960894,12.0116246 L27.9960894,7.38339665 C27.9960894,5.98258324 26.8564425,4.8429676 25.4556603,4.8429676 L21.5096,4.8429676 L21.5096,1.76303017 C21.5096,0.887897207 20.8653184,0.16042905 20.026257,0.0298145251 L7.97490056,0.0298145251 C7.13577654,0.16042905 6.49155754,0.887865922 6.49155754,1.76299888 L6.49155754,4.8429676 L2.54549721,4.8429676 C1.14471508,4.8429676 0.00506815642,5.98264581 0.00506815642,7.38339665 L0.00506815642,11.7549944 L0.0210547486,11.8180961 C0.147539665,12.3398972 0.558435754,12.8426771 1.2475486,13.3171128 L1.2475486,13.3170816 Z M9.35856983,3.1567419 C9.35856983,2.90614972 9.56176536,2.70301676 9.81232626,2.70301676 L18.1888939,2.70301676 C18.439486,2.70301676 18.6426503,2.90618101 18.6426503,3.1567419 L18.6426503,4.8429676 L9.35853855,4.8429676 L9.35853855,3.1567419 L9.35856983,3.1567419 Z" id="Shape" fill-rule="nonzero"></path>
                            </g>
                        </g>
                    </g>
                </g>
            </g>
        </g>
    </g>
</svg>