<?xml version="1.0" encoding="UTF-8"?>
<svg width="52px" height="52px" viewBox="0 0 52 52" version="1.1" xmlns="http://www.w3.org/2000/svg" xmlns:xlink="http://www.w3.org/1999/xlink">
    <!-- Generator: Sketch 51.3 (57544) - http://www.bohemiancoding.com/sketch -->
    <title>shanchu-3</title>
    <desc>Created with Sketch.</desc>
    <defs></defs>
    <g id="Symbols" stroke="none" stroke-width="1" fill="none" fill-rule="evenodd">
        <g id="简历1" transform="translate(-659.000000, -14.000000)">
            <g id="shanchu-3" transform="translate(660.000000, 15.000000)">
                <g>
                    <circle id="Oval-2" stroke="#1492FF" fill="#FFFFFF" cx="25" cy="25" r="25"></circle>
                    <path d="M31.1111111,33.0281504 C31.1111111,33.7853688 30.5153203,34.4017094 29.7840297,34.4017094 L20.2166512,34.4017094 C19.4838148,34.4005458 18.8900137,33.7862636 18.8888889,33.0281504 L18.8888889,18.4472934 L31.1111111,18.4472934 L31.1111111,33.0281504 Z M21.6666667,15.8877131 C21.6666667,15.7249129 21.790894,15.5982906 21.9506149,15.5982906 L28.6056506,15.5982906 C28.7653714,15.5982906 28.8888889,15.7249129 28.8888889,15.8877131 L28.8888889,16.7378917 L21.6666667,16.7378917 L21.6666667,15.8877131 Z M35.2951389,16.6644427 L30.15625,16.6644427 L30.15625,15.8282181 C30.15625,14.7606974 29.3055556,13.8888889 28.2638889,13.8888889 L21.7534722,13.8888889 C20.7093007,13.8912373 19.8634026,14.7581304 19.8611111,15.8282181 L19.8611111,16.6644427 L14.7048611,16.6644427 C14.2534722,16.6644427 13.8888889,17.0380749 13.8888889,17.5006672 C13.8888889,17.9632595 14.2534722,18.3368917 14.7048611,18.3368917 L17.1354167,18.3368917 L17.1354167,33.0508852 C17.1354167,34.7410013 18.4723441,36.1111111 20.1215278,36.1111111 L29.8784722,36.1111111 C31.5276559,36.1111111 32.8645833,34.7410013 32.8645833,33.0508852 L32.8645833,18.3190997 L35.2951389,18.3190997 C35.7465278,18.3190997 36.1111111,17.9454675 36.1111111,17.4828752 C36.1111111,17.0202829 35.7465278,16.6644427 35.2951389,16.6644427 Z M25.2777778,32.1225071 C25.7387707,32.1225071 26.1111111,31.7397623 26.1111111,31.2658877 L26.1111111,22.1529157 C26.1111111,21.6790411 25.7394799,21.2962963 25.2777778,21.2962963 C24.8167849,21.2962963 24.4444444,21.6790411 24.4444444,22.1529157 L24.4444444,31.2658877 C24.4444444,31.7397623 24.8167849,32.1225071 25.2777778,32.1225071 Z M21.3888889,32.1225071 C21.8498818,32.1225071 22.2222222,31.7397623 22.2222222,31.2658877 L22.2222222,22.1529157 C22.2222222,21.6790411 21.8498818,21.2962963 21.3888889,21.2962963 C20.927896,21.2962963 20.5555556,21.6790411 20.5555556,22.1529157 L20.5555556,31.2658877 C20.5732861,31.7397623 20.9456265,32.1225071 21.3888889,32.1225071 Z M28.6107567,32.1225071 C29.0715535,32.1225071 29.4444444,31.7397623 29.4444444,31.2658877 L29.4444444,22.1529157 C29.4444444,21.6790411 29.0722624,21.2962963 28.6107567,21.2962963 C28.1506687,21.2962963 27.7777778,21.6790411 27.7777778,22.1529157 L27.7777778,31.2658877 C27.7777778,31.7397623 28.1499598,32.1225071 28.6107567,32.1225071 Z" id="Shape" fill="#1492FF" fill-rule="nonzero"></path>
                </g>
            </g>
        </g>
    </g>
</svg>