<?xml version="1.0" encoding="UTF-8"?>
<svg width="28px" height="28px" viewBox="0 0 28 28" version="1.1" xmlns="http://www.w3.org/2000/svg" xmlns:xlink="http://www.w3.org/1999/xlink">
    <!-- Generator: Sketch 51.3 (57544) - http://www.bohemiancoding.com/sketch -->
    <title>形状</title>
    <desc>Created with Sketch.</desc>
    <defs></defs>
    <g id="Symbols" stroke="none" stroke-width="1" fill="none" fill-rule="evenodd" opacity="0.8">
        <g id="Group-8" transform="translate(-1.000000, -2.000000)" fill="#FFFFFF" fill-rule="nonzero">
            <g id="形状">
                <g transform="translate(0.000000, 1.000000)">
                    <path d="M22.7875,19.375 L20.775,19.375 L20.775,15.35 L22.7875,15.35 L22.7875,19.375 Z M22.7875,25.2375 L20.775,25.2375 L20.775,21.2125 L22.7875,21.2125 L22.7875,25.2375 Z M16.575,22.35 C16.575,22.35 16.575,22.4375 16.575,22.35 L12.6375,22.35 L12.6375,19.9 L16.575,19.9 L16.575,22.35 Z M12.55,13.3375 C12.55,13.3375 12.6375,13.3375 12.55,13.3375 L16.4875,13.3375 L16.4875,15.875 L12.55,15.875 L12.55,13.3375 Z M10.0125,9.3125 L6.075,9.3125 L6.075,6.8625 L10.0125,6.8625 L10.0125,9.3125 Z M10.0125,15.875 L6.075,15.875 L6.075,13.425 L10.0125,13.425 L10.0125,15.875 Z M10.0125,22.35 C10.0125,22.35 10.0125,22.4375 10.0125,22.35 L6.075,22.35 L6.075,19.9 L10.0125,19.9 L10.0125,22.35 Z M12.55,6.8625 C12.55,6.775 12.6375,6.775 12.55,6.8625 L16.4875,6.8625 L16.4875,9.3125 L12.55,9.3125 L12.55,6.8625 Z M28.0375,26.9875 L26.55,26.9875 L26.55,14.5625 C26.55,13.3375 25.7625,12.2875 24.625,11.9375 L19.1125,10.1875 L19.1125,2.4 C19.1125,1.6125 18.5,1 17.7125,1 L4.85,1 C4.0625,1 3.45,1.6125 3.45,2.4 L3.45,26.9875 L1.9625,26.9875 C1.4375,26.9875 1,27.425 1,27.95 C1,28.5625 1.4375,29 1.9625,29 L28.0375,29 C28.5625,29 29,28.5625 29,28.0375 C29,27.425 28.5625,26.9875 28.0375,26.9875 Z" id="Shape"></path>
                </g>
            </g>
        </g>
    </g>
</svg>