<?xml version="1.0" encoding="UTF-8"?>
<svg width="30px" height="30px" viewBox="0 0 30 30" version="1.1" xmlns="http://www.w3.org/2000/svg" xmlns:xlink="http://www.w3.org/1999/xlink">
    <!-- Generator: Sketch 51.3 (57544) - http://www.bohemiancoding.com/sketch -->
    <title>形状 copy</title>
    <desc>Created with Sketch.</desc>
    <defs></defs>
    <g id="形状-copy" stroke="none" stroke-width="1" fill="none" fill-rule="evenodd" opacity="0.8">
        <g id="shengri" transform="translate(3.000000, 0.000000)" fill="#FFFFFF" fill-rule="nonzero">
            <path d="M12.2683706,8.17891374 C13.774067,8.17891374 14.9946752,6.95830561 14.9946752,5.45260917 C14.9946752,4.93461131 14.8583599,4.45750799 14.599361,4.0485623 L12.2683706,0 L9.93738019,4.0485623 C9.67838125,4.45750799 9.54206604,4.93461128 9.54206604,5.45260917 C9.54206604,6.95207668 10.7689031,8.17891374 12.2683706,8.17891374 Z M18.5388712,21.7968051 L17.0802982,20.3382322 L15.6080937,21.7968051 C13.8359957,23.5689031 10.7280085,23.5825346 8.94227901,21.7968051 L7.48370607,20.3382322 L5.99787006,21.7968051 C5.11182109,22.6828541 3.92587859,23.1735889 2.6717785,23.1735889 C1.67667732,23.1735889 0.763365304,22.8600639 0,22.342066 L0,28.6261981 C0,29.3759319 0.61341853,29.9893504 1.3631523,29.9893504 L23.1735889,29.9893504 C23.9233227,29.9893504 24.5367412,29.3759319 24.5367412,28.6261981 L24.5367412,22.342066 C23.7733759,22.8600639 22.8600639,23.1735889 21.8649627,23.1735889 C20.6108626,23.1735889 19.4249201,22.6828541 18.5388712,21.7968051 Z M20.4472843,12.2683706 L13.6315229,12.2683706 L13.6315229,9.54206604 L10.9052183,9.54206604 L10.9052183,12.2683706 L4.08945687,12.2683706 C1.82662406,12.2683706 0,14.0949947 0,16.3578275 L0,18.457082 C0,19.9292865 1.19957403,21.1288605 2.6717785,21.1288605 C3.3806177,21.1288605 4.06219383,20.85623 4.55292866,20.3518637 L7.47007454,17.4483493 L10.3735889,20.3518637 C11.3823216,21.3605964 13.1407881,21.3605964 14.1495208,20.3518637 L17.0666667,17.4483493 L19.9701811,20.3518637 C20.4745474,20.85623 21.142492,21.1288605 21.8513312,21.1288605 C23.3235357,21.1288605 24.5231097,19.9292865 24.5231097,18.457082 L24.5231097,16.3578275 C24.5367412,14.0949947 22.7101172,12.2683706 20.4472843,12.2683706 Z" id="Shape"></path>
        </g>
    </g>
</svg>