<?xml version="1.0" encoding="UTF-8"?>
<svg width="120px" height="120px" viewBox="0 0 120 120" version="1.1" xmlns="http://www.w3.org/2000/svg" xmlns:xlink="http://www.w3.org/1999/xlink">
    <!-- Generator: Sketch 51.3 (57544) - http://www.bohemiancoding.com/sketch -->
    <title>icon/面性/备案信息</title>
    <desc>Created with Sketch.</desc>
    <defs></defs>
    <g id="icon/面性/备案信息" stroke="none" stroke-width="1" fill="none" fill-rule="evenodd">
        <g id="beian" transform="translate(11.000000, 5.000000)" fill="#FD9933" fill-rule="nonzero">
            <path d="M96.7942894,17.2143975 C96.1090201,16.5258216 76.2362103,0 49.1680727,0 C21.9286178,0 2.5697599,16.5258216 1.88449059,17.2143975 L0,18.9358372 L0,57.4960876 C0,83.3013823 31.9558978,101.781181 43.066715,107.383136 C45.1490632,108.433033 46.6265673,109 48.9967554,109 C51.3669434,109 53.0722182,108.359677 55.406831,107.18957 C67.0275764,101.365261 98.5074627,83.0116313 98.5074627,57.4960876 L98.5074627,18.9358372 L96.7942894,17.2143975 Z" id="Path"></path>
            <polygon id="Path" points="31.7210184 52.1948003 31.7210184 59.8907487 47.3266188 59.8907487 47.3266188 52.1948003"></polygon>
            <polygon id="Path" points="31.7210184 71.2207609 47.3266188 71.2207609 47.3266188 63.5248125 31.7210184 63.5248125"></polygon>
            <polygon id="Path" points="51.8157726 52.1948003 51.8157726 59.8907487 67.421373 59.8907487 67.421373 52.1948003"></polygon>
            <polygon id="Path" points="51.8157726 71.2207609 67.421373 71.2207609 67.421373 63.5248125 51.8157726 63.5248125"></polygon>
        </g>
        <path d="M82.2733197,30.5037688 L82.2733197,36.3023712 C78.9705394,39.661449 74.7858294,42.6357832 69.7190641,45.2254633 C75.0297847,46.3889427 81.1285774,47.111415 88.015625,47.392902 C86.7020192,50.0576452 85.6136193,52.4596313 84.7503926,54.5989322 C75.0297096,53.6794081 66.7728826,51.9435979 59.9796639,49.3914494 C53.9183114,51.5495161 46.9844533,53.3416229 39.1778816,54.7678235 L81.6540515,54.7678235 L81.6540515,81.6215452 L73.8850503,81.6215452 L73.8850503,79.4259579 L46.1868719,79.4259579 L46.1868719,81.6215452 L38.4178706,81.6215452 L38.4178706,54.9085663 C37.273157,55.11499 36.109695,55.312028 34.9274497,55.4996859 C34.0642231,53.4354482 33.0884162,51.2023518 32,48.8003298 C39.2435978,47.8245083 45.6426387,46.6141325 51.1973147,45.1691661 C48.6639321,43.5928392 46.4589839,41.8476462 44.5824042,39.9335349 C42.2179137,41.9227094 39.7502484,43.6960506 37.1793342,45.2536118 C36.0909179,43.9775376 34.458318,42.3261722 32.2814856,40.2994661 C38.5117303,36.5463066 43.8599023,31.7798656 48.3261621,26 L56.3766489,26.9007538 C55.4946564,28.1392964 54.5939116,29.3402894 53.6743876,30.5037688 L82.2733197,30.5037688 Z M60.0922582,42.3261621 C64.6148153,40.5809429 68.2928564,38.5917982 71.1264918,36.3586683 L50.2684124,36.3586683 C52.8768582,38.7231588 56.1514407,40.7123035 60.0922582,42.3261621 Z M73.8850503,60.4538317 L63.6952732,60.4538317 L63.6952732,64.5072236 L73.8850503,64.5072236 L73.8850503,60.4538317 Z M46.1868719,64.5072236 L56.3766489,64.5072236 L56.3766489,60.4538317 L46.1868719,60.4538317 L46.1868719,64.5072236 Z M63.6952732,73.7399497 L73.8850503,73.7399497 L73.8850503,69.6865578 L63.6952732,69.6865578 L63.6952732,73.7399497 Z M46.1868719,73.7399497 L56.3766489,73.7399497 L56.3766489,69.6865578 L46.1868719,69.6865578 L46.1868719,73.7399497 Z" id="备" fill="#FFFFFF"></path>
    </g>
</svg>