<?xml version="1.0" encoding="UTF-8"?>
<svg width="164px" height="88px" viewBox="0 0 164 88" version="1.1" xmlns="http://www.w3.org/2000/svg" xmlns:xlink="http://www.w3.org/1999/xlink">
    <!-- Generator: Sketch 51.3 (57544) - http://www.bohemiancoding.com/sketch -->
    <title>异地定点 copy</title>
    <desc>Created with Sketch.</desc>
    <defs>
        <rect id="path-1" x="0" y="0" width="164" height="88" rx="4"></rect>
    </defs>
    <g id="异地定点-copy" stroke="none" stroke-width="1" fill="none" fill-rule="evenodd">
        <g id="定点药店">
            <g id="Group-4">
                <mask id="mask-2" fill="white">
                    <use xlink:href="#path-1"></use>
                </mask>
                <use id="Mask" fill="#DBF4FF" xlink:href="#path-1"></use>
                <path d="M94.0281841,7.32904288 C96.0830583,2.44301429 99.5416908,4.20612619e-16 104.404082,0 C109.266472,0 113.404483,2.81311782 116.818113,8.43935346 C122.272704,9.79895122 125,12.1610765 125,15.5257292 C125,18.890382 123.125786,21.3818056 119.377358,23 L87.3026668,23 C86,19.4894987 85.6743333,16.6952067 86.3256667,14.617124 C87.0709173,10.3724152 89.6384231,7.94305477 94.0281841,7.32904288 Z" id="Path-4-Copy-2" fill="#FFFFFF" opacity="0.449441964" mask="url(#mask-2)"></path>
                <path d="M151.146305,58.5686441 C151.611609,56.8562147 152.571156,56 154.024944,56 C155.478731,56 156.639794,56.6311617 157.508131,57.8934852 C159.836044,57.7078566 161,58.3580508 161,59.8440678 C161,61.3300847 160.51062,62.3820621 159.531859,63 L150.41154,63 C149.470513,62.8017655 149,62.0136476 149,60.6356462 C149,59.2576448 149.715435,58.5686441 151.146305,58.5686441 Z" id="Path-3" fill="#FFFFFF" mask="url(#mask-2)"></path>
                <path d="M138.587228,29.0544267 C140.273279,25.0181422 143.111131,23 147.100785,23 C151.090439,23 154.48573,25.3238799 157.286657,29.9716398 C161.762219,31.0947858 164,33.0461067 164,35.8256024 C164,38.6050982 162.462183,40.6632307 159.38655,42 L133.068855,42 C132,39.1000207 131.732786,36.7916925 132.267214,35.0750155 C132.878701,31.5685169 134.985373,29.5616539 138.587228,29.0544267 Z" id="Path-4" fill="#FFFFFF" opacity="0.938671875" mask="url(#mask-2)"></path>
                <path d="M65.3228684,50.4611565 C66.4293391,47.4870522 68.2916797,46 70.9098901,46 C73.5281005,46 75.75626,47.7123326 77.5943688,51.1369978 C80.5314563,51.964579 82,53.4023944 82,55.4504439 C82,57.4984934 80.9908078,59.0150121 78.9724235,60 L61.701436,60 C61,57.8631731 60.824641,56.1622998 61.175359,54.8973799 C61.5766478,52.313644 62.9591509,50.8349029 65.3228684,50.4611565 Z" id="Path-4-Copy" fill="#FFFFFF" mask="url(#mask-2)" transform="translate(71.500000, 53.000000) scale(-1, 1) translate(-71.500000, -53.000000) "></path>
                <g id="yiyuan-18" mask="url(#mask-2)">
                    <g transform="translate(83.000000, 27.000000)">
                        <path d="M88.7402412,57.3891957 C88.8542931,57.0622348 88.9126568,56.719621 88.9130647,56.3746659 L88.9130647,19.112487 C88.9130647,17.3460825 87.4275549,15.9143372 85.5952943,15.9143372 L67.1270898,15.9143372 L67.1270898,55.5756161 C67.1270898,56.2123021 67.0084403,56.8215875 66.7974466,57.3892844 L64.63076,57.3892844 C64.7409477,57.0704093 64.8040434,56.7290995 64.8040434,56.3747545 L64.8040434,5.19814984 C64.8040434,3.43174534 63.3176139,2 61.4858131,2 L32.5127152,2 C30.6804546,2 29.1954047,3.43174534 29.1954047,5.19814984 L29.1954047,56.3746659 C29.1954047,56.7290109 29.2581326,57.0704093 29.3683202,57.3891957 L27.2031053,57.3891957 C26.9925714,56.8214988 26.8729102,56.2122134 26.8729102,55.5755274 L26.8729102,15.9142485 L8.8472958,15.9142485 C7.01558705,15.9142485 5.53044515,17.3459938 5.53044515,19.1123983 L5.53044515,56.3746659 C5.53044515,56.7290109 5.59317301,57.0704093 5.70290078,57.3891957 L0,57.3891957 L0,64 L94,64 L94,57.3891957 L88.7402412,57.3891957 Z" id="Shape" fill="#FFFFFF" fill-rule="nonzero"></path>
                        <path d="M91.7402412,55.3891957 C91.8542931,55.0622348 91.9126568,54.719621 91.9130647,54.3746659 L91.9130647,17.112487 C91.9130647,15.3460825 90.4275549,13.9143372 88.5952943,13.9143372 L70.1270898,13.9143372 L70.1270898,53.5756161 C70.1270898,54.2123021 70.0084403,54.8215875 69.7974466,55.3892844 L67.63076,55.3892844 C67.7409477,55.0704093 67.8040434,54.7290995 67.8040434,54.3747545 L67.8040434,3.19814984 C67.8040434,1.43174534 66.3176139,0 64.4858131,0 L35.5127152,0 C33.6804546,0 32.1954047,1.43174534 32.1954047,3.19814984 L32.1954047,54.3746659 C32.1954047,54.7290109 32.2581326,55.0704093 32.3683202,55.3891957 L30.2031053,55.3891957 C29.9925714,54.8214988 29.8729102,54.2122134 29.8729102,53.5755274 L29.8729102,13.9142485 L11.8472958,13.9142485 C10.0155871,13.9142485 8.53044515,15.3459938 8.53044515,17.1123983 L8.53044515,54.3746659 C8.53044515,54.7290109 8.59317301,55.0704093 8.70290078,55.3891957 L3,55.3891957 L3,62 L97,62 L97,55.3891957 L91.7402412,55.3891957 Z M18.4820088,42.3260491 L13.7267403,42.3260491 L13.7267403,37.7424423 L18.4820088,37.7424423 L18.4820088,42.3260491 Z M18.4820088,34.2778243 L13.7267403,34.2778243 L13.7267403,29.6929759 L18.4820088,29.6929759 L18.4820088,34.2778243 Z M18.4820088,26.4949148 L13.7267403,26.4949148 L13.7267403,21.9100665 L18.4820088,21.9100665 L18.4820088,26.4949148 Z M25.8918985,42.3260491 L21.1366299,42.3260491 L21.1366299,37.7424423 L25.8918985,37.7424423 L25.8918985,42.3260491 Z M25.8918985,34.2778243 L21.1366299,34.2778243 L21.1366299,29.6929759 L25.8918985,29.6929759 L25.8918985,34.2778243 Z M25.8918985,26.4949148 L21.1366299,26.4949148 L21.1366299,21.9100665 L25.8918985,21.9100665 L25.8918985,26.4949148 Z M57.3816529,55.1747797 L43.4200129,55.1747797 L43.4200129,38.3821432 L57.3816529,38.3821432 L57.3816529,55.1747797 Z M49.9995401,23.9880747 C43.5415136,23.9880747 38.3057607,18.9402546 38.3057607,12.713856 C38.3057607,6.48630473 43.5424334,1.43848463 49.9995401,1.43848463 C56.4589463,1.43848463 61.6946073,6.48630473 61.6946073,12.713856 C61.6946073,18.94123 56.4589463,23.9880747 49.9995401,23.9880747 Z M80.1906806,42.3260491 L75.4358719,42.3260491 L75.4358719,37.7424423 L80.1906806,37.7424423 L80.1906806,42.3260491 Z M80.1906806,34.2778243 L75.4358719,34.2778243 L75.4358719,29.6929759 L80.1906806,29.6929759 L80.1906806,34.2778243 Z M80.1906806,26.4949148 L75.4358719,26.4949148 L75.4358719,21.9100665 L80.1906806,21.9100665 L80.1906806,26.4949148 Z M87.5996505,42.3260491 L82.8453017,42.3260491 L82.8453017,37.7424423 L87.5996505,37.7424423 L87.5996505,42.3260491 Z M87.5996505,34.2778243 L82.8453017,34.2778243 L82.8453017,29.6929759 L87.5996505,29.6929759 L87.5996505,34.2778243 Z M87.5996505,26.4949148 L82.8453017,26.4949148 L82.8453017,21.9100665 L87.5996505,21.9100665 L87.5996505,26.4949148 Z" id="Shape-Copy-4" fill="#83C0FE" fill-rule="nonzero"></path>
                        <path d="M47.2826087,10.2826087 L47.2826087,7 C47.2826087,5.8954305 48.1780392,5 49.2826087,5 L49.7173913,5 C50.8219608,5 51.7173913,5.8954305 51.7173913,7 L51.7173913,10.2826087 L55,10.2826087 C56.1045695,10.2826087 57,11.1780392 57,12.2826087 L57,12.7173913 C57,13.8219608 56.1045695,14.7173913 55,14.7173913 L51.7173913,14.7173913 L51.7173913,18 C51.7173913,19.1045695 50.8219608,20 49.7173913,20 L49.2826087,20 C48.1780392,20 47.2826087,19.1045695 47.2826087,18 L47.2826087,14.7173913 L44,14.7173913 C42.8954305,14.7173913 42,13.8219608 42,12.7173913 L42,12.2826087 C42,11.1780392 42.8954305,10.2826087 44,10.2826087 L47.2826087,10.2826087 Z" id="Combined-Shape" fill="#FF9521" fill-rule="evenodd"></path>
                    </g>
                </g>
                <g id="noun__cc" mask="url(#mask-2)" fill="#218FFF" fill-rule="nonzero">
                    <g transform="translate(45.000000, 68.000000)" id="Shape">
                        <path d="M3,18.5003202 C2.99989785,17.2498144 3.59549714,16.0942504 4.56241746,15.4689645 C5.52933777,14.8436785 6.72066222,14.8436785 7.68758254,15.4689645 C8.65450285,16.0942504 9.25010214,17.2498144 9.24999999,18.5003202 C9.2498421,20.4331918 7.85077819,22 6.125,22 C4.3992218,22 3.00015789,20.4331918 3,18.5003202 Z M7.46428572,18.5003202 C7.46428572,17.6718931 6.86466709,17.0003202 6.12500001,17.0003202 C5.38533293,17.0003202 4.7857143,17.6718931 4.7857143,18.5003202 C4.7857143,19.3287473 5.38533293,20.0003202 6.12500001,20.0003202 C6.86466709,20.0003202 7.46428572,19.3287473 7.46428572,18.5003202 Z M21.75,18.5003202 C21.7498979,17.2498144 22.3454971,16.0942504 23.3124175,15.4689645 C24.2793378,14.8436785 25.4706622,14.8436785 26.4375825,15.4689645 C27.4045029,16.0942504 28.0001022,17.2498144 28,18.5003202 C27.9998421,20.4331918 26.6007782,22 24.875,22 C23.1492218,22 21.7501579,20.4331918 21.75,18.5003202 Z M26.2142857,18.5003202 C26.2142857,17.6718931 25.6146671,17.0003202 24.875,17.0003202 C24.1353329,17.0003202 23.5357143,17.6718931 23.5357143,18.5003202 C23.5357143,19.3287473 24.135333,20.0003201 24.875,20.0003201 C25.6146671,20.0003201 26.2142857,19.3287473 26.2142857,18.5003202 Z"></path>
                        <path d="M28.7205872,3.00000073 L14.5882348,3.00000073 C14.1345009,2.9999728 13.7497911,3.33260391 13.6855878,3.78045525 L13.0313966,8.34590957 C12.9538966,8.89090954 12.4063819,9.3636368 11.8533966,9.3636368 L4.10294103,9.3636368 C3.91583789,9.36369157 3.73328146,9.42113849 3.58004399,9.52818224 C3.40179398,9.65227314 3.16291165,9.82363676 2.85063226,10.0500004 C2.52662086,10.2850803 2.20354968,10.5214458 1.8814264,10.7590913 C0.813294081,11.5045458 0,13.0636366 0,14.3640911 L0,17.0909091 C6.16675452e-17,17.5929862 0.408210945,18 0.911764666,18 L1.82352936,18 C1.82352936,15.7406534 3.66047863,13.9090911 5.92647039,13.9090911 C8.19246216,13.9090911 10.0294114,15.7406534 10.0294114,18 L20.9705875,18 C20.9705875,15.7406534 22.8075368,13.9090911 25.0735286,13.9090911 C27.3395203,13.9090911 29.1764696,15.7406534 29.1764696,18 L30.0882343,18 C30.591788,18 30.9999989,17.5929862 30.9999989,17.0909091 L30.9999989,12.5454548 C31.0000722,12.4979697 30.9964139,12.4505519 30.9890577,12.4036366 L29.7855284,4.80545519 C30.2530917,4.72661842 30.5819911,4.30359109 30.5420201,3.8324626 C30.5020491,3.36133412 30.1065533,2.99940523 29.6323519,3.00000073 L28.7205872,3.00000073 Z M19.1470582,8.45454592 L19.1470582,7.09545509 C19.1470582,6.83772783 19.353117,6.63636421 19.6074993,6.63636421 L20.5101463,6.63636421 C20.7686316,6.63636421 20.9705875,6.84181874 20.9705875,7.09545509 L20.9705875,8.45454592 L22.3336757,8.45454592 C22.592161,8.45454592 22.7941169,8.66000045 22.7941169,8.91363683 L22.7941169,9.81363678 C22.7941169,10.071364 22.588058,10.2727277 22.3336757,10.2727277 L20.9705875,10.2727277 L20.9705875,11.6318185 C20.9705875,11.8895458 20.7645287,12.0909094 20.5101463,12.0909094 L19.6074993,12.0909094 C19.349014,12.0909094 19.1470582,11.8854549 19.1470582,11.6318185 L19.1470582,10.2727277 L17.78397,10.2727277 C17.5254847,10.2727277 17.3235288,10.0672731 17.3235288,9.81363678 L17.3235288,8.91363683 C17.3235288,8.65590957 17.5295876,8.45454595 17.78397,8.45454592 L19.1470582,8.45454592 Z"></path>
                        <path d="M7.44457345,4.77773225 C8.20100499,3.76931363 9.73875649,3 11.0000683,3 L14.1111263,3 C14.6020377,3 15,3.39795892 15,3.88886613 C15,4.37977333 14.6020377,4.77773225 14.1111263,4.77773225 L11.0000683,4.77773225 C10.298747,4.77773225 9.28720868,5.28349708 8.8667714,5.8443716 L5.93348816,9.75538254 C5.87310141,9.83596033 5.79946203,9.90569171 5.71571409,9.96159947 L4.38240352,10.8504656 C3.97396524,11.1229191 3.42199152,11.0126845 3.14953569,10.6042497 C2.87707987,10.1958149 2.98731542,9.64384587 3.3957537,9.37139238 L4.60017759,8.56830183 L7.44457345,4.77773225 Z"></path>
                        <path d="M14.18182,2.20360008 C14.18182,1.87040007 13.8750021,1.6000001 13.5000025,1.6000001 C13.1222756,1.6000001 12.818185,1.86760009 12.818185,2.20360008 L12.818185,3.20000002 C12.818185,3.64182781 12.4111716,4 11.909095,4 C11.4070185,4 11.000005,3.64182781 11.000005,3.20000002 L11.000005,2.20360008 C10.9986768,1.61943536 11.2615113,1.05880776 11.730522,0.64540255 C12.1995327,0.231997341 12.8361783,-0.000213527319 13.5000025,1.47332975e-07 C14.8800011,1.47332975e-07 16,0.987600112 16,2.20360008 L16,3.20000002 C16,3.64182781 15.5929865,4 15.09091,4 C14.5888335,4 14.18182,3.64182781 14.18182,3.20000002 L14.18182,2.20360008 Z"></path>
                    </g>
                </g>
            </g>
            <text id="异地定点" font-family="PingFangSC-Medium, PingFang SC" font-size="16" font-weight="400" fill="#008EFF">
                <tspan x="11" y="27">异地定点</tspan>
            </text>
        </g>
    </g>
</svg>