<?xml version="1.0" encoding="UTF-8"?>
<svg width="160px" height="88px" viewBox="0 0 160 88" version="1.1" xmlns="http://www.w3.org/2000/svg" xmlns:xlink="http://www.w3.org/1999/xlink">
    <!-- Generator: Sketch 51.3 (57544) - http://www.bohemiancoding.com/sketch -->
    <title>定点医院 copy</title>
    <desc>Created with Sketch.</desc>
    <defs>
        <rect id="path-1" x="0" y="0" width="160" height="88" rx="4"></rect>
    </defs>
    <g id="定点医院-copy" stroke="none" stroke-width="1" fill="none" fill-rule="evenodd">
        <g id="定点医院">
            <mask id="mask-2" fill="white">
                <use xlink:href="#path-1"></use>
            </mask>
            <use id="Mask" fill="#DBF4FF" xlink:href="#path-1"></use>
            <path d="M13.264,18.504 L22.768,18.504 L22.768,19.944 L18.832,19.944 L18.832,22.344 L23.44,22.344 L23.44,23.784 L18.832,23.784 L18.832,26.728 C19.92,26.888 21.248,26.968 22.848,26.984 C23.648,26.984 24.48,26.936 25.312,26.872 L25.024,28.376 L23.52,28.376 C20.16,28.376 17.744,28.072 16.304,27.464 C15.28,26.984 14.448,26.28 13.808,25.352 C13.2,26.632 12.448,27.72 11.552,28.616 L10.56,27.4 C12.064,25.832 13.088,23.72 13.6,21.096 L15.072,21.352 C14.88,22.28 14.64,23.16 14.368,23.96 C15.12,25.208 16.064,26.024 17.184,26.376 L17.328,26.408 L17.328,19.944 L13.264,19.944 L13.264,18.504 Z M24.704,15.384 L24.704,19.016 L23.216,19.016 L23.216,16.792 L12.784,16.792 L12.784,19.096 L11.296,19.096 L11.296,15.384 L17.312,15.384 C17.088,14.872 16.832,14.408 16.576,13.992 L18.208,13.736 C18.432,14.232 18.656,14.776 18.864,15.384 L24.704,15.384 Z M32.992,13.976 L34.496,13.976 L34.496,15.384 L40.592,15.384 L40.592,16.808 L34.496,16.808 L34.496,18.504 L39.584,18.504 L39.584,23.928 L28.672,23.928 L28.672,18.504 L32.992,18.504 L32.992,13.976 Z M38.064,22.52 L38.064,19.928 L30.176,19.928 L30.176,22.52 L38.064,22.52 Z M28.64,24.456 L29.904,25.08 C29.328,26.456 28.64,27.64 27.872,28.632 L26.624,27.72 C27.392,26.808 28.064,25.72 28.64,24.456 Z M32.448,24.968 C32.768,25.992 33.056,27.112 33.312,28.312 L31.776,28.664 C31.584,27.384 31.328,26.248 31.024,25.272 L32.448,24.968 Z M35.776,24.76 C36.24,25.848 36.64,27.016 36.992,28.28 L35.488,28.632 C35.184,27.288 34.8,26.088 34.352,25.048 L35.776,24.76 Z M38.976,24.408 C39.984,25.72 40.752,26.856 41.296,27.832 L40.032,28.712 C39.472,27.656 38.72,26.472 37.76,25.192 L38.976,24.408 Z M48.48,18.872 C48.064,19.512 47.616,20.04 47.104,20.488 L45.968,19.448 C46.992,18.52 47.744,17.4 48.192,16.088 L49.568,16.472 C49.44,16.84 49.312,17.176 49.184,17.496 L55.296,17.496 L55.296,18.872 L51.984,18.872 L51.984,19.576 C51.952,19.976 51.92,20.344 51.872,20.696 L56.24,20.696 L56.24,22.12 L51.568,22.12 C51.344,22.856 51.024,23.496 50.624,24.04 C49.824,25.048 48.528,25.832 46.704,26.408 L45.888,25.128 C47.648,24.584 48.848,23.88 49.504,23.048 C49.696,22.76 49.872,22.44 50,22.12 L45.984,22.12 L45.984,20.696 L50.4,20.696 C50.464,20.328 50.496,19.96 50.512,19.576 L50.512,18.872 L48.48,18.872 Z M52.128,22.728 C53.616,23.368 54.976,24.168 56.224,25.112 L55.392,26.392 C54.08,25.304 52.736,24.456 51.36,23.832 L52.128,22.728 Z M43.68,14.408 L56.496,14.408 L56.496,15.832 L45.136,15.832 L45.136,26.648 L57.008,26.648 L57.008,28.104 L43.68,28.104 L43.68,14.408 Z M73.008,15.192 L73.008,18.664 L71.744,18.664 L71.744,19.608 L65.632,19.608 L65.632,18.664 L64.336,18.664 L64.336,15.192 L67.824,15.192 C67.664,14.776 67.504,14.408 67.312,14.056 L68.88,13.8 C69.056,14.216 69.216,14.68 69.376,15.192 L73.008,15.192 Z M65.808,18.248 L71.552,18.248 L71.552,16.632 L65.808,16.632 L65.808,18.248 Z M64.416,21.08 L73.136,21.08 L73.136,22.52 L70.592,22.52 L70.592,26.44 C70.592,26.84 70.72,27.048 70.976,27.048 L71.472,27.048 C71.6,27.048 71.712,26.984 71.792,26.888 C71.904,26.76 71.984,26.104 72.032,24.92 L73.408,25.4 C73.28,26.872 73.12,27.752 72.912,28.024 C72.688,28.264 72.32,28.392 71.776,28.408 L70.496,28.408 C70.032,28.408 69.696,28.248 69.472,27.944 C69.216,27.624 69.088,27.24 69.088,26.792 L69.088,22.52 L67.92,22.52 C67.792,24.12 67.536,25.32 67.12,26.104 C66.608,27.064 65.744,27.896 64.528,28.6 L63.552,27.352 C64.576,26.808 65.312,26.152 65.76,25.4 C66.112,24.776 66.336,23.816 66.432,22.52 L64.416,22.52 L64.416,21.08 Z M59.136,14.424 L63.968,14.424 L63.968,15.608 C63.552,16.984 63.056,18.44 62.48,19.96 C63.36,21.416 63.84,22.696 63.904,23.8 C63.904,24.552 63.744,25.096 63.456,25.432 C63.024,25.848 62.272,26.056 61.184,26.072 L60.688,24.52 C61.008,24.584 61.296,24.616 61.52,24.616 C61.872,24.584 62.128,24.504 62.256,24.408 C62.368,24.28 62.432,24.088 62.432,23.8 C62.432,22.728 61.952,21.528 61.008,20.184 C61.632,18.584 62.128,17.128 62.48,15.848 L60.608,15.848 L60.608,28.664 L59.136,28.664 L59.136,14.424 Z" fill="#008EFF" mask="url(#mask-2)"></path>
            <path d="M94.0281841,7.32904288 C96.0830583,2.44301429 99.5416908,4.20612619e-16 104.404082,0 C109.266472,0 113.404483,2.81311782 116.818113,8.43935346 C122.272704,9.79895122 125,12.1610765 125,15.5257292 C125,18.890382 123.125786,21.3818056 119.377358,23 L87.3026668,23 C86,19.4894987 85.6743333,16.6952067 86.3256667,14.617124 C87.0709173,10.3724152 89.6384231,7.94305477 94.0281841,7.32904288 Z" id="Path-4-Copy-2" fill="#FFFFFF" opacity="0.449441964" mask="url(#mask-2)"></path>
            <path d="M138.587228,29.0544267 C140.273279,25.0181422 143.111131,23 147.100785,23 C151.090439,23 154.48573,25.3238799 157.286657,29.9716398 C161.762219,31.0947858 164,33.0461067 164,35.8256024 C164,38.6050982 162.462183,40.6632307 159.38655,42 L133.068855,42 C132,39.1000207 131.732786,36.7916925 132.267214,35.0750155 C132.878701,31.5685169 134.985373,29.5616539 138.587228,29.0544267 Z" id="Path-4" fill="#FFFFFF" opacity="0.938671875" mask="url(#mask-2)"></path>
            <path d="M55.3228684,50.4611565 C56.4293391,47.4870522 58.2916797,46 60.9098901,46 C63.5281005,46 65.75626,47.7123326 67.5943688,51.1369978 C70.5314563,51.964579 72,53.4023944 72,55.4504439 C72,57.4984934 70.9908078,59.0150121 68.9724235,60 L51.701436,60 C51,57.8631731 50.824641,56.1622998 51.175359,54.8973799 C51.5766478,52.313644 52.9591509,50.8349029 55.3228684,50.4611565 Z" id="Path-4-Copy" fill="#FFFFFF" mask="url(#mask-2)" transform="translate(61.500000, 53.000000) scale(-1, 1) translate(-61.500000, -53.000000) "></path>
            <g id="yiyuan-18" mask="url(#mask-2)">
                <g transform="translate(67.000000, 27.000000)">
                    <path d="M88.7402412,57.3891957 C88.8542931,57.0622348 88.9126568,56.719621 88.9130647,56.3746659 L88.9130647,19.112487 C88.9130647,17.3460825 87.4275549,15.9143372 85.5952943,15.9143372 L67.1270898,15.9143372 L67.1270898,55.5756161 C67.1270898,56.2123021 67.0084403,56.8215875 66.7974466,57.3892844 L64.63076,57.3892844 C64.7409477,57.0704093 64.8040434,56.7290995 64.8040434,56.3747545 L64.8040434,5.19814984 C64.8040434,3.43174534 63.3176139,2 61.4858131,2 L32.5127152,2 C30.6804546,2 29.1954047,3.43174534 29.1954047,5.19814984 L29.1954047,56.3746659 C29.1954047,56.7290109 29.2581326,57.0704093 29.3683202,57.3891957 L27.2031053,57.3891957 C26.9925714,56.8214988 26.8729102,56.2122134 26.8729102,55.5755274 L26.8729102,15.9142485 L8.8472958,15.9142485 C7.01558705,15.9142485 5.53044515,17.3459938 5.53044515,19.1123983 L5.53044515,56.3746659 C5.53044515,56.7290109 5.59317301,57.0704093 5.70290078,57.3891957 L0,57.3891957 L0,64 L94,64 L94,57.3891957 L88.7402412,57.3891957 Z" id="Shape" fill="#FFFFFF" fill-rule="nonzero"></path>
                    <path d="M91.7402412,55.3891957 C91.8542931,55.0622348 91.9126568,54.719621 91.9130647,54.3746659 L91.9130647,17.112487 C91.9130647,15.3460825 90.4275549,13.9143372 88.5952943,13.9143372 L70.1270898,13.9143372 L70.1270898,53.5756161 C70.1270898,54.2123021 70.0084403,54.8215875 69.7974466,55.3892844 L67.63076,55.3892844 C67.7409477,55.0704093 67.8040434,54.7290995 67.8040434,54.3747545 L67.8040434,3.19814984 C67.8040434,1.43174534 66.3176139,0 64.4858131,0 L35.5127152,0 C33.6804546,0 32.1954047,1.43174534 32.1954047,3.19814984 L32.1954047,54.3746659 C32.1954047,54.7290109 32.2581326,55.0704093 32.3683202,55.3891957 L30.2031053,55.3891957 C29.9925714,54.8214988 29.8729102,54.2122134 29.8729102,53.5755274 L29.8729102,13.9142485 L11.8472958,13.9142485 C10.0155871,13.9142485 8.53044515,15.3459938 8.53044515,17.1123983 L8.53044515,54.3746659 C8.53044515,54.7290109 8.59317301,55.0704093 8.70290078,55.3891957 L3,55.3891957 L3,62 L97,62 L97,55.3891957 L91.7402412,55.3891957 Z M18.4820088,42.3260491 L13.7267403,42.3260491 L13.7267403,37.7424423 L18.4820088,37.7424423 L18.4820088,42.3260491 Z M18.4820088,34.2778243 L13.7267403,34.2778243 L13.7267403,29.6929759 L18.4820088,29.6929759 L18.4820088,34.2778243 Z M18.4820088,26.4949148 L13.7267403,26.4949148 L13.7267403,21.9100665 L18.4820088,21.9100665 L18.4820088,26.4949148 Z M25.8918985,42.3260491 L21.1366299,42.3260491 L21.1366299,37.7424423 L25.8918985,37.7424423 L25.8918985,42.3260491 Z M25.8918985,34.2778243 L21.1366299,34.2778243 L21.1366299,29.6929759 L25.8918985,29.6929759 L25.8918985,34.2778243 Z M25.8918985,26.4949148 L21.1366299,26.4949148 L21.1366299,21.9100665 L25.8918985,21.9100665 L25.8918985,26.4949148 Z M57.3816529,55.1747797 L43.4200129,55.1747797 L43.4200129,38.3821432 L57.3816529,38.3821432 L57.3816529,55.1747797 Z M49.9995401,23.9880747 C43.5415136,23.9880747 38.3057607,18.9402546 38.3057607,12.713856 C38.3057607,6.48630473 43.5424334,1.43848463 49.9995401,1.43848463 C56.4589463,1.43848463 61.6946073,6.48630473 61.6946073,12.713856 C61.6946073,18.94123 56.4589463,23.9880747 49.9995401,23.9880747 Z M80.1906806,42.3260491 L75.4358719,42.3260491 L75.4358719,37.7424423 L80.1906806,37.7424423 L80.1906806,42.3260491 Z M80.1906806,34.2778243 L75.4358719,34.2778243 L75.4358719,29.6929759 L80.1906806,29.6929759 L80.1906806,34.2778243 Z M80.1906806,26.4949148 L75.4358719,26.4949148 L75.4358719,21.9100665 L80.1906806,21.9100665 L80.1906806,26.4949148 Z M87.5996505,42.3260491 L82.8453017,42.3260491 L82.8453017,37.7424423 L87.5996505,37.7424423 L87.5996505,42.3260491 Z M87.5996505,34.2778243 L82.8453017,34.2778243 L82.8453017,29.6929759 L87.5996505,29.6929759 L87.5996505,34.2778243 Z M87.5996505,26.4949148 L82.8453017,26.4949148 L82.8453017,21.9100665 L87.5996505,21.9100665 L87.5996505,26.4949148 Z" id="Shape-Copy-4" fill="#83C0FE" fill-rule="nonzero"></path>
                    <path d="M47.2826087,10.2826087 L47.2826087,7 C47.2826087,5.8954305 48.1780392,5 49.2826087,5 L49.7173913,5 C50.8219608,5 51.7173913,5.8954305 51.7173913,7 L51.7173913,10.2826087 L55,10.2826087 C56.1045695,10.2826087 57,11.1780392 57,12.2826087 L57,12.7173913 C57,13.8219608 56.1045695,14.7173913 55,14.7173913 L51.7173913,14.7173913 L51.7173913,18 C51.7173913,19.1045695 50.8219608,20 49.7173913,20 L49.2826087,20 C48.1780392,20 47.2826087,19.1045695 47.2826087,18 L47.2826087,14.7173913 L44,14.7173913 C42.8954305,14.7173913 42,13.8219608 42,12.7173913 L42,12.2826087 C42,11.1780392 42.8954305,10.2826087 44,10.2826087 L47.2826087,10.2826087 Z" id="Combined-Shape" fill="#FF9521" fill-rule="evenodd"></path>
                </g>
            </g>
        </g>
    </g>
</svg>