<?xml version="1.0" encoding="UTF-8"?>
<svg width="40px" height="40px" viewBox="0 0 40 40" version="1.1" xmlns="http://www.w3.org/2000/svg" xmlns:xlink="http://www.w3.org/1999/xlink">
    <!-- Generator: Sketch 51.3 (57544) - http://www.bohemiancoding.com/sketch -->
    <title>分组</title>
    <desc>Created with Sketch.</desc>
    <defs></defs>
    <g id="分组" stroke="none" stroke-width="1" fill="none" fill-rule="evenodd">
        <g id="Group">
            <circle id="Oval" fill="#FF0000" cx="20" cy="20" r="20"></circle>
            <path d="M14.18,21.94 C13.4,22.7 12.56,23.44 11.64,24.16 L11,22.04 C13.7,19.92 15.54,17.84 16.5,15.84 L11.54,15.84 L11.54,13.94 L14.4,13.94 C14.08,13.12 13.74,12.32 13.36,11.54 L15.38,11 C15.84,12.08 16.2,13.06 16.48,13.94 L18.58,13.94 L18.58,15.64 C18.06,17.02 17.28,18.38 16.22,19.7 L16.22,19.78 L17.06,20.34 C17.64,19.92 18.2,19.34 18.76,18.58 L19.94,19.76 C19.46,20.4 18.94,20.94 18.38,21.36 C18.9,21.78 19.4,22.22 19.88,22.68 L18.74,24.48 C17.9,23.42 17.06,22.5 16.22,21.74 L16.22,29.58 L14.18,29.58 L14.18,21.94 Z M22.12,11.08 L24.18,11.08 L24.18,17.62 C25.96,18.74 27.78,20 29.62,21.44 L28.38,23.28 C26.72,21.8 25.32,20.62 24.18,19.78 L24.18,29.56 L22.12,29.56 L22.12,11.08 Z" id="补" fill="#FFFFFF"></path>
        </g>
    </g>
</svg>