<?xml version="1.0" encoding="UTF-8"?>
<svg width="120px" height="120px" viewBox="0 0 120 120" version="1.1" xmlns="http://www.w3.org/2000/svg" xmlns:xlink="http://www.w3.org/1999/xlink">
    <!-- Generator: Sketch 51.3 (57544) - http://www.bohemiancoding.com/sketch -->
    <title>icon/面性/参保信息</title>
    <desc>Created with Sketch.</desc>
    <defs></defs>
    <g id="icon/面性/参保信息" stroke="none" stroke-width="1" fill="none" fill-rule="evenodd">
        <g id="canbao-on" transform="translate(11.000000, 5.000000)">
            <path d="M64.8507463,39.3283582 L64.8507463,32.6119403 L45.1492537,32.6119403 L45.1492537,41.5671642 L63.3088903,41.5671642 C64.3367943,41.380597 64.8507463,40.8208955 64.8507463,39.3283582 Z" id="Shape" fill="#0284FD" fill-rule="nonzero"></path>
            <path d="M96.7942894,17.2143975 C96.1090201,16.5258216 76.2362103,0 49.1680727,0 C21.9286178,0 2.5697599,16.5258216 1.88449059,17.2143975 L0,18.9358372 L0,57.4960876 C0,83.3013823 31.9558978,101.781181 43.066715,107.383136 C45.1490632,108.433033 46.6265673,109 48.9967554,109 C51.3669434,109 53.0722182,108.359677 55.406831,107.18957 C67.0275764,101.365261 98.5074627,83.0116313 98.5074627,57.4960876 L98.5074627,18.9358372 L96.7942894,17.2143975 Z" id="Shape-Copy" fill="#0284FD" fill-rule="nonzero"></path>
            <path d="M31.3340081,24 L38.5222672,26.145749 C37.270574,30.6697257 35.8579701,34.9432997 34.284413,38.9665992 L34.284413,77 L27.5253036,77 L27.5253036,53.1285425 C26.3272545,55.1848956 25.0755801,57.1518125 23.7702429,59.0293522 C23.3768536,55.560374 22.7867786,52.1629721 22,48.8370445 C25.7550795,42.3640027 28.8663844,34.0850707 31.3340081,24 Z M39.7560729,26.2530364 L71.1912955,26.2530364 L71.1912955,46.3157895 L59.0678138,46.3157895 L59.0678138,51.1437247 L74.7317814,51.1437247 L74.7317814,57.2591093 L62.4205466,57.2591093 C65.2636782,61.1035955 69.5819548,64.3400678 75.3755061,66.9686235 C73.587373,69.8296364 72.174769,72.1541746 71.1376518,73.9423077 C65.9341845,70.6700241 61.9109454,66.5663202 59.0678138,61.6310729 L59.0678138,77 L51.4504049,77 L51.4504049,61.9797571 C47.89202,67.0044111 43.6899702,71.2064608 38.8441296,74.5860324 C37.6997244,72.4760353 36.3407636,70.3303078 34.7672065,68.1487854 C39.6130472,65.3592978 43.8597996,61.7294421 47.5075911,57.2591093 L36.2692308,57.2591093 L36.2692308,51.1437247 L51.4504049,51.1437247 L51.4504049,46.3157895 L39.7560729,46.3157895 L39.7560729,26.2530364 Z M64.0566802,32.6366397 L46.8906883,32.6366397 L46.8906883,39.9321862 L64.0566802,39.9321862 L64.0566802,32.6366397 Z" id="保" fill="#FFFFFF"></path>
        </g>
    </g>
</svg>