<?xml version="1.0" encoding="UTF-8"?>
<svg width="120px" height="120px" viewBox="0 0 120 120" version="1.1" xmlns="http://www.w3.org/2000/svg" xmlns:xlink="http://www.w3.org/1999/xlink">
    <!-- Generator: Sketch 51.3 (57544) - http://www.bohemiancoding.com/sketch -->
    <title>icon/面性/定点医院</title>
    <desc>Created with Sketch.</desc>
    <defs></defs>
    <g id="icon/面性/定点医院" stroke="none" stroke-width="1" fill="none" fill-rule="evenodd">
        <g id="yiyuan-11" transform="translate(5.000000, 6.000000)" fill="#EB594A" fill-rule="nonzero">
            <path d="M2,0 L71,-2.22044605e-16 C72.1045695,-4.2495073e-16 73,0.8954305 73,2 L73,105 C73,106.104569 72.1045695,107 71,107 L2,107 C0.8954305,107 1.3527075e-16,106.104569 0,105 L0,2 C-1.3527075e-16,0.8954305 0.8954305,2.02906125e-16 2,0 Z M35.9333333,38.4572589 C37.7666667,38.4572589 39.6,37.0196044 39.6,35.5819498 L39.6,28.7530908 L46.5666667,28.7530908 C48.4,28.7530908 49.8666667,26.9560226 49.8666667,25.1589544 C49.8666667,23.0024726 48.4,21.5648181 46.5666667,21.5648181 L39.6,21.5648181 L39.6,14.735959 C39.6,12.9388909 37.7666667,11.5012363 35.9333333,11.5012363 C33.7333333,11.5012363 32.2666667,12.9388909 32.2666667,14.735959 L32.2666667,21.2054045 L25.3,21.2054045 C23.4666667,21.2054045 22,23.0024726 22,24.7995408 C22,26.9560226 23.4666667,28.3936771 25.3,28.3936771 L32.2666667,28.3936771 L32.2666667,35.2225362 C32.2666667,37.0196044 34.1,38.4572589 35.9333333,38.4572589 Z M76,54 L108,54 C109.104569,54 110,54.8954305 110,56 L110,105 C110,106.104569 109.104569,107 108,107 L76,107 L76,54 Z M16,50 C14.8954305,50 14,50.8954305 14,52 L14,67 C14,68.1045695 14.8954305,69 16,69 L31,69 C32.1045695,69 33,68.1045695 33,67 L33,52 C33,50.8954305 32.1045695,50 31,50 L16,50 Z M42,75 C40.8954305,75 40,75.8954305 40,77 L40,92 C40,93.1045695 40.8954305,94 42,94 L57,94 C58.1045695,94 59,93.1045695 59,92 L59,77 C59,75.8954305 58.1045695,75 57,75 L42,75 Z M16,75 C14.8954305,75 14,75.8954305 14,77 L14,92 C14,93.1045695 14.8954305,94 16,94 L31,94 C32.1045695,94 33,93.1045695 33,92 L33,77 C33,75.8954305 32.1045695,75 31,75 L16,75 Z M42,50 C40.8954305,50 40,50.8954305 40,52 L40,67 C40,68.1045695 40.8954305,69 42,69 L57,69 C58.1045695,69 59,68.1045695 59,67 L59,52 C59,50.8954305 58.1045695,50 57,50 L42,50 Z" id="Combined-Shape"></path>
        </g>
    </g>
</svg>