<?xml version="1.0" encoding="UTF-8"?>
<svg width="160px" height="88px" viewBox="0 0 160 88" version="1.1" xmlns="http://www.w3.org/2000/svg" xmlns:xlink="http://www.w3.org/1999/xlink">
    <!-- Generator: Sketch 51.3 (57544) - http://www.bohemiancoding.com/sketch -->
    <title>异地定点 copy</title>
    <desc>Created with Sketch.</desc>
    <defs>
        <rect id="path-1" x="0" y="0" width="160" height="88" rx="4"></rect>
    </defs>
    <g id="异地定点-copy" stroke="none" stroke-width="1" fill="none" fill-rule="evenodd">
        <g id="定点药店">
            <g id="Group-4">
                <mask id="mask-2" fill="white">
                    <use xlink:href="#path-1"></use>
                </mask>
                <use id="Mask" fill="#DBF4FF" xlink:href="#path-1"></use>
                <g id="Group-3" mask="url(#mask-2)">
                    <g transform="translate(81.000000, 15.000000)">
                        <rect id="Rectangle-6" fill="#83C0FE" fill-rule="evenodd" x="0" y="36" width="68" height="39" rx="4"></rect>
                        <rect id="Rectangle" fill="#ABE0F8" fill-rule="evenodd" x="12" y="18" width="45" height="60" rx="4"></rect>
                        <g id="Group-2" stroke-width="1" fill="none" fill-rule="evenodd" transform="translate(18.000000, 35.000000)">
                            <g id="Group-6" fill="#FFFFFF">
                                <rect id="Rectangle-4" x="0" y="0" width="7.33333333" height="7"></rect>
                                <rect id="Rectangle-4-Copy" x="8.55555556" y="0" width="7.33333333" height="7"></rect>
                                <rect id="Rectangle-4-Copy-2" x="17.1111111" y="0" width="7.33333333" height="7"></rect>
                                <rect id="Rectangle-4-Copy-3" x="25.6666667" y="0" width="7.33333333" height="7"></rect>
                                <rect id="Rectangle-4" x="0" y="8" width="7.33333333" height="7"></rect>
                                <rect id="Rectangle-4-Copy" x="8.55555556" y="8" width="7.33333333" height="7"></rect>
                                <rect id="Rectangle-4-Copy-2" x="17.1111111" y="8" width="7.33333333" height="7"></rect>
                                <rect id="Rectangle-4-Copy-3" x="25.6666667" y="8" width="7.33333333" height="7"></rect>
                            </g>
                        </g>
                        <g id="Group-2-Copy" stroke-width="1" fill="none" fill-rule="evenodd" transform="translate(19.000000, 43.000000)"></g>
                        <rect id="Rectangle-5" fill="#5D9EBF" fill-rule="evenodd" x="28" y="58" width="15" height="15"></rect>
                        <path d="M34.525463,31 L34.5023148,31 C33.9572571,30.9996302 33.4359629,30.7787781 33.0590278,30.3885353 C31.0551609,28.2770149 29.1725646,26.0555684 27.4201389,23.7346976 C23.8229167,18.9485233 22,15.1305971 22,12.3899043 C22.0000002,5.54714907 27.5964408,-4.18960967e-16 34.5,0 C41.4035592,4.18960967e-16 46.9999998,5.54714907 47,12.3899043 C46.8565432,14.5240575 46.1997374,16.5931633 45.0844907,18.4242468 C43.507363,21.1916699 41.6726009,23.8068466 39.6041667,26.2356228 L39.5844907,26.258567 L35.9965278,30.3242913 C35.6269381,30.7486195 35.0910047,30.9947914 34.525463,31 Z" id="Shape" fill="#83C0FE" fill-rule="nonzero"></path>
                        <circle id="Oval-2" fill="#FFFFFF" fill-rule="evenodd" cx="35" cy="13" r="7"></circle>
                        <g id="Group-5" stroke-width="1" fill="none" fill-rule="evenodd" transform="translate(30.000000, 8.000000)">
                            <path d="M3.5,3.5 L3.5,1.5 C3.5,0.671572875 4.17157288,-3.40053408e-15 5,-3.55271368e-15 C5.82842712,-3.70489327e-15 6.5,0.671572875 6.5,1.5 L6.5,3.5 L8.5,3.5 C9.32842712,3.5 10,4.17157288 10,5 C10,5.82842712 9.32842712,6.5 8.5,6.5 L6.5,6.5 L6.5,8.5 C6.5,9.32842712 5.82842712,10 5,10 C4.17157288,10 3.5,9.32842712 3.5,8.5 L3.5,6.5 L1.5,6.5 C0.671572875,6.5 1.01453063e-16,5.82842712 0,5 C-1.01453063e-16,4.17157288 0.671572875,3.5 1.5,3.5 L3.5,3.5 Z" id="Combined-Shape" fill="#0380FF"></path>
                        </g>
                    </g>
                </g>
                <g id="noun__cc" mask="url(#mask-2)" fill="#218FFF" fill-rule="nonzero">
                    <g transform="translate(41.000000, 67.000000)" id="Shape">
                        <path d="M3,18.5003202 C2.99989785,17.2498144 3.59549714,16.0942504 4.56241746,15.4689645 C5.52933777,14.8436785 6.72066222,14.8436785 7.68758254,15.4689645 C8.65450285,16.0942504 9.25010214,17.2498144 9.24999999,18.5003202 C9.2498421,20.4331918 7.85077819,22 6.125,22 C4.3992218,22 3.00015789,20.4331918 3,18.5003202 Z M7.46428572,18.5003202 C7.46428572,17.6718931 6.86466709,17.0003202 6.12500001,17.0003202 C5.38533293,17.0003202 4.7857143,17.6718931 4.7857143,18.5003202 C4.7857143,19.3287473 5.38533293,20.0003202 6.12500001,20.0003202 C6.86466709,20.0003202 7.46428572,19.3287473 7.46428572,18.5003202 Z M21.75,18.5003202 C21.7498979,17.2498144 22.3454971,16.0942504 23.3124175,15.4689645 C24.2793378,14.8436785 25.4706622,14.8436785 26.4375825,15.4689645 C27.4045029,16.0942504 28.0001022,17.2498144 28,18.5003202 C27.9998421,20.4331918 26.6007782,22 24.875,22 C23.1492218,22 21.7501579,20.4331918 21.75,18.5003202 Z M26.2142857,18.5003202 C26.2142857,17.6718931 25.6146671,17.0003202 24.875,17.0003202 C24.1353329,17.0003202 23.5357143,17.6718931 23.5357143,18.5003202 C23.5357143,19.3287473 24.135333,20.0003201 24.875,20.0003201 C25.6146671,20.0003201 26.2142857,19.3287473 26.2142857,18.5003202 Z"></path>
                        <path d="M28.7205872,3.00000073 L14.5882348,3.00000073 C14.1345009,2.9999728 13.7497911,3.33260391 13.6855878,3.78045525 L13.0313966,8.34590957 C12.9538966,8.89090954 12.4063819,9.3636368 11.8533966,9.3636368 L4.10294103,9.3636368 C3.91583789,9.36369157 3.73328146,9.42113849 3.58004399,9.52818224 C3.40179398,9.65227314 3.16291165,9.82363676 2.85063226,10.0500004 C2.52662086,10.2850803 2.20354968,10.5214458 1.8814264,10.7590913 C0.813294081,11.5045458 0,13.0636366 0,14.3640911 L0,17.0909091 C6.16675452e-17,17.5929862 0.408210945,18 0.911764666,18 L1.82352936,18 C1.82352936,15.7406534 3.66047863,13.9090911 5.92647039,13.9090911 C8.19246216,13.9090911 10.0294114,15.7406534 10.0294114,18 L20.9705875,18 C20.9705875,15.7406534 22.8075368,13.9090911 25.0735286,13.9090911 C27.3395203,13.9090911 29.1764696,15.7406534 29.1764696,18 L30.0882343,18 C30.591788,18 30.9999989,17.5929862 30.9999989,17.0909091 L30.9999989,12.5454548 C31.0000722,12.4979697 30.9964139,12.4505519 30.9890577,12.4036366 L29.7855284,4.80545519 C30.2530917,4.72661842 30.5819911,4.30359109 30.5420201,3.8324626 C30.5020491,3.36133412 30.1065533,2.99940523 29.6323519,3.00000073 L28.7205872,3.00000073 Z M19.1470582,8.45454592 L19.1470582,7.09545509 C19.1470582,6.83772783 19.353117,6.63636421 19.6074993,6.63636421 L20.5101463,6.63636421 C20.7686316,6.63636421 20.9705875,6.84181874 20.9705875,7.09545509 L20.9705875,8.45454592 L22.3336757,8.45454592 C22.592161,8.45454592 22.7941169,8.66000045 22.7941169,8.91363683 L22.7941169,9.81363678 C22.7941169,10.071364 22.588058,10.2727277 22.3336757,10.2727277 L20.9705875,10.2727277 L20.9705875,11.6318185 C20.9705875,11.8895458 20.7645287,12.0909094 20.5101463,12.0909094 L19.6074993,12.0909094 C19.349014,12.0909094 19.1470582,11.8854549 19.1470582,11.6318185 L19.1470582,10.2727277 L17.78397,10.2727277 C17.5254847,10.2727277 17.3235288,10.0672731 17.3235288,9.81363678 L17.3235288,8.91363683 C17.3235288,8.65590957 17.5295876,8.45454595 17.78397,8.45454592 L19.1470582,8.45454592 Z"></path>
                        <path d="M7.44457345,4.77773225 C8.20100499,3.76931363 9.73875649,3 11.0000683,3 L14.1111263,3 C14.6020377,3 15,3.39795892 15,3.88886613 C15,4.37977333 14.6020377,4.77773225 14.1111263,4.77773225 L11.0000683,4.77773225 C10.298747,4.77773225 9.28720868,5.28349708 8.8667714,5.8443716 L5.93348816,9.75538254 C5.87310141,9.83596033 5.79946203,9.90569171 5.71571409,9.96159947 L4.38240352,10.8504656 C3.97396524,11.1229191 3.42199152,11.0126845 3.14953569,10.6042497 C2.87707987,10.1958149 2.98731542,9.64384587 3.3957537,9.37139238 L4.60017759,8.56830183 L7.44457345,4.77773225 Z"></path>
                        <path d="M14.18182,2.20360008 C14.18182,1.87040007 13.8750021,1.6000001 13.5000025,1.6000001 C13.1222756,1.6000001 12.818185,1.86760009 12.818185,2.20360008 L12.818185,3.20000002 C12.818185,3.64182781 12.4111716,4 11.909095,4 C11.4070185,4 11.000005,3.64182781 11.000005,3.20000002 L11.000005,2.20360008 C10.9986768,1.61943536 11.2615113,1.05880776 11.730522,0.64540255 C12.1995327,0.231997341 12.8361783,-0.000213527319 13.5000025,1.47332975e-07 C14.8800011,1.47332975e-07 16,0.987600112 16,2.20360008 L16,3.20000002 C16,3.64182781 15.5929865,4 15.09091,4 C14.5888335,4 14.18182,3.64182781 14.18182,3.20000002 L14.18182,2.20360008 Z"></path>
                    </g>
                </g>
            </g>
            <path d="M23.944,14.408 L23.944,18.44 L14.808,18.44 L14.808,19.24 C14.808,19.736 15.048,19.992 15.56,19.992 L23.896,19.992 C24.152,19.976 24.328,19.88 24.424,19.72 C24.504,19.592 24.568,19.208 24.632,18.568 L26.008,19.016 C25.928,19.752 25.816,20.264 25.688,20.584 C25.496,21.08 25.048,21.336 24.344,21.368 L14.968,21.368 C13.848,21.368 13.304,20.856 13.304,19.832 L13.304,14.408 L23.944,14.408 Z M14.808,17.096 L22.472,17.096 L22.472,15.784 L14.808,15.784 L14.808,17.096 Z M11.656,23.448 L15.656,23.448 C15.656,23.016 15.672,22.488 15.672,21.864 L17.176,21.864 C17.176,22.536 17.16,23.064 17.144,23.448 L21,23.448 L21,21.88 L22.504,21.88 L22.504,23.448 L26.376,23.448 L26.376,24.84 L22.504,24.84 L22.504,28.584 L21,28.584 L21,24.84 L16.936,24.84 C16.488,26.712 15.32,27.976 13.4,28.648 L12.616,27.32 C14.152,26.904 15.112,26.088 15.464,24.84 L11.656,24.84 L11.656,23.448 Z M41.912,16.808 C41.912,20.168 41.816,22.2 41.64,22.92 C41.464,23.624 40.744,23.992 39.464,23.992 L39.4,23.992 L38.952,22.504 C39.272,22.52 39.544,22.536 39.784,22.536 C40.088,22.536 40.28,22.36 40.344,22.04 C40.408,21.752 40.44,20.664 40.456,18.792 L38.504,19.368 L38.504,25.24 L37.032,25.24 L37.032,19.816 L35.08,20.408 L35.08,26.264 C35.08,26.712 35.336,26.936 35.848,26.936 L40.168,26.936 C40.424,26.936 40.616,26.824 40.744,26.6 C40.888,26.376 40.984,25.672 41.048,24.456 L42.456,24.904 C42.328,26.568 42.12,27.576 41.8,27.896 C41.496,28.2 41.048,28.36 40.456,28.36 L35.384,28.36 C34.184,28.36 33.592,27.752 33.592,26.568 L33.592,20.856 L32.472,21.192 L32.472,19.704 L33.592,19.368 L33.592,15.512 L35.08,15.512 L35.08,18.904 L37.032,18.312 L37.032,13.88 L38.504,13.88 L38.504,17.864 L41.912,16.808 Z M32.664,23.544 L32.664,25.064 C31.176,25.752 29.592,26.328 27.896,26.808 L27.512,25.272 C28.152,25.144 28.792,24.984 29.416,24.808 L29.416,19.48 L27.72,19.48 L27.72,18.008 L29.416,18.008 L29.416,13.976 L30.904,13.976 L30.904,18.008 L32.44,18.008 L32.44,19.48 L30.904,19.48 L30.904,24.296 C31.496,24.072 32.088,23.816 32.664,23.544 Z M46.264,18.504 L55.768,18.504 L55.768,19.944 L51.832,19.944 L51.832,22.344 L56.44,22.344 L56.44,23.784 L51.832,23.784 L51.832,26.728 C52.92,26.888 54.248,26.968 55.848,26.984 C56.648,26.984 57.48,26.936 58.312,26.872 L58.024,28.376 L56.52,28.376 C53.16,28.376 50.744,28.072 49.304,27.464 C48.28,26.984 47.448,26.28 46.808,25.352 C46.2,26.632 45.448,27.72 44.552,28.616 L43.56,27.4 C45.064,25.832 46.088,23.72 46.6,21.096 L48.072,21.352 C47.88,22.28 47.64,23.16 47.368,23.96 C48.12,25.208 49.064,26.024 50.184,26.376 L50.328,26.408 L50.328,19.944 L46.264,19.944 L46.264,18.504 Z M57.704,15.384 L57.704,19.016 L56.216,19.016 L56.216,16.792 L45.784,16.792 L45.784,19.096 L44.296,19.096 L44.296,15.384 L50.312,15.384 C50.088,14.872 49.832,14.408 49.576,13.992 L51.208,13.736 C51.432,14.232 51.656,14.776 51.864,15.384 L57.704,15.384 Z M65.992,13.976 L67.496,13.976 L67.496,15.384 L73.592,15.384 L73.592,16.808 L67.496,16.808 L67.496,18.504 L72.584,18.504 L72.584,23.928 L61.672,23.928 L61.672,18.504 L65.992,18.504 L65.992,13.976 Z M71.064,22.52 L71.064,19.928 L63.176,19.928 L63.176,22.52 L71.064,22.52 Z M61.64,24.456 L62.904,25.08 C62.328,26.456 61.64,27.64 60.872,28.632 L59.624,27.72 C60.392,26.808 61.064,25.72 61.64,24.456 Z M65.448,24.968 C65.768,25.992 66.056,27.112 66.312,28.312 L64.776,28.664 C64.584,27.384 64.328,26.248 64.024,25.272 L65.448,24.968 Z M68.776,24.76 C69.24,25.848 69.64,27.016 69.992,28.28 L68.488,28.632 C68.184,27.288 67.8,26.088 67.352,25.048 L68.776,24.76 Z M71.976,24.408 C72.984,25.72 73.752,26.856 74.296,27.832 L73.032,28.712 C72.472,27.656 71.72,26.472 70.76,25.192 L71.976,24.408 Z" id="异地定点" fill="#008EFF"></path>
        </g>
    </g>
</svg>