<?xml version="1.0" encoding="UTF-8"?>
<svg width="120px" height="120px" viewBox="0 0 120 120" version="1.1" xmlns="http://www.w3.org/2000/svg" xmlns:xlink="http://www.w3.org/1999/xlink">
    <!-- Generator: Sketch 51.3 (57544) - http://www.bohemiancoding.com/sketch -->
    <title>icon/面性/定点药店</title>
    <desc>Created with Sketch.</desc>
    <defs></defs>
    <g id="icon/面性/定点药店" stroke="none" stroke-width="1" fill="none" fill-rule="evenodd">
        <g id="dianpu-copy" transform="translate(1.000000, 6.000000)" fill="#0284FD" fill-rule="nonzero">
            <path d="M118,44.5181818 C118,52.5636364 111.295455,59.2681818 103.25,59.2681818 C95.2045455,59.2681818 88.5,52.5636364 88.5,44.5181818 C88.5,52.5636364 81.7954545,59.2681818 73.75,59.2681818 C65.7045455,59.2681818 59,52.5636364 59,44.5181818 C59,52.5636364 52.2954545,59.2681818 44.25,59.2681818 C36.2045455,59.2681818 29.5,52.5636364 29.5,44.5181818 C29.5,52.5636364 22.7954545,59.2681818 14.75,59.2681818 C6.70454545,59.2681818 0,52.5636364 0,44.5181818 L10.4590909,16.6272727 L107.809091,16.6272727 L118,44.5181818 Z M22.5272727,63.2909091 L22.5272727,93.3272727 L95.4727273,93.3272727 L95.4727273,63.2909091 L107.272727,63.2909091 L107.272727,105.272727 C107.272727,106.377297 106.377297,107.272727 105.272727,107.272727 L12.7272727,107.272727 C11.6227032,107.272727 10.7272727,106.377297 10.7272727,105.272727 L10.7272727,63.2909091 L22.5272727,63.2909091 Z M99.4954545,10.9954545 L18.5045455,10.9954545 C15.5545455,10.9954545 12.8727273,8.58181818 12.8727273,5.36363636 C12.8727273,2.41363636 15.2863636,0 18.5045455,0 L99.4954545,0 C102.445455,0 105.127273,2.41363636 105.127273,5.63181818 C105.127273,8.58181818 102.713636,10.9954545 99.4954545,10.9954545 Z" id="Combined-Shape"></path>
        </g>
    </g>
</svg>