<?xml version="1.0" encoding="UTF-8"?>
<svg width="620px" height="780px" viewBox="0 0 620 780" version="1.1" xmlns="http://www.w3.org/2000/svg" xmlns:xlink="http://www.w3.org/1999/xlink">
    <!-- Generator: Sketch 51.3 (57544) - http://www.bohemiancoding.com/sketch -->
    <title>内容</title>
    <desc>Created with Sketch.</desc>
    <defs>
        <linearGradient x1="50%" y1="0%" x2="50%" y2="100%" id="linearGradient-1">
            <stop stop-color="#1492FF" offset="0%"></stop>
            <stop stop-color="#38ABF9" offset="100%"></stop>
        </linearGradient>
        <rect id="path-2" x="0" y="0" width="620" height="780" rx="10"></rect>
        <polygon id="path-4" points="3 0 77 12.7548828 77 50.1435547 3 45"></polygon>
        <filter x="-9.5%" y="-10.0%" width="118.9%" height="127.9%" filterUnits="objectBoundingBox" id="filter-5">
            <feOffset dx="0" dy="2" in="SourceAlpha" result="shadowOffsetOuter1"></feOffset>
            <feGaussianBlur stdDeviation="2" in="shadowOffsetOuter1" result="shadowBlurOuter1"></feGaussianBlur>
            <feColorMatrix values="0 0 0 0 0   0 0 0 0 0   0 0 0 0 0  0 0 0 0.5 0" type="matrix" in="shadowBlurOuter1"></feColorMatrix>
        </filter>
        <polygon id="path-6" points="3 0 77 4.2139916 77 39.9824697 3 45"></polygon>
        <filter x="-9.5%" y="-11.1%" width="118.9%" height="131.1%" filterUnits="objectBoundingBox" id="filter-7">
            <feOffset dx="0" dy="2" in="SourceAlpha" result="shadowOffsetOuter1"></feOffset>
            <feGaussianBlur stdDeviation="2" in="shadowOffsetOuter1" result="shadowBlurOuter1"></feGaussianBlur>
            <feColorMatrix values="0 0 0 0 0   0 0 0 0 0   0 0 0 0 0  0 0 0 0.5 0" type="matrix" in="shadowBlurOuter1"></feColorMatrix>
        </filter>
    </defs>
    <g id="内容" stroke="none" stroke-width="1" fill="none" fill-rule="evenodd">
        <g>
            <mask id="mask-3" fill="white">
                <use xlink:href="#path-2"></use>
            </mask>
            <use id="Mask" fill="url(#linearGradient-1)" xlink:href="#path-2"></use>
            <path d="M9.43294239,275.705078 C19.9380003,269.171224 30.7203389,267.53776 41.7799581,270.804687 C52.8395774,274.071615 61.4216293,277.945312 67.5261139,282.425781 C77.1935831,274.678385 87.1591649,270.804687 97.4228593,270.804687 C107.686554,270.804687 117.420111,272.438151 126.62353,275.705078 C140.073797,264.577474 152.400574,260.343099 163.603862,263.001953 C174.80715,265.660807 182.813091,270.884115 187.621683,278.671875 L207.467364,287.166016 C225.247807,272.991536 241.837954,267.53776 257.237805,270.804687 C272.637657,274.071615 284.513315,280.592448 292.864778,290.367188 L320.903887,300.671875 C329.686357,289.816406 340.752441,286.38151 354.10214,290.367188 C367.451839,294.352865 376.412458,301.564453 380.983997,312.001953 C397.768816,304.809245 412.433083,303.011068 424.976801,306.607422 C437.520518,310.203776 446.556563,313.277344 452.084936,315.828125 C456.55878,313.277344 461.460758,312.001953 466.790868,312.001953 C472.120978,312.001953 478.494123,313.277344 485.910303,315.828125 C484.577057,312.59375 486.699044,307.541667 492.276265,300.671875 C497.853485,293.802083 503.555697,291.389974 509.382901,293.435547 C509.911602,281.839193 514.845186,274.295573 524.183654,270.804687 C533.522122,267.313802 543.629218,269.936198 554.504941,278.671875 C564.441071,268.22526 575.686741,263.001953 588.241952,263.001953 C600.797162,263.001953 614.615221,267.236328 629.696128,275.705078 L642.132813,748.046875 L-14.8671875,748.046875 L-14.8671875,278.671875 L9.43294239,275.705078 Z" id="Path-78" fill="#FFFFFF" opacity="0.322377232" mask="url(#mask-3)"></path>
            <path d="M-16,303.80268 C-0.147262249,301.373149 13.129176,303.564345 23.8293147,310.376267 C34.5294535,317.188189 43.5533903,323.042648 50.901125,327.939644 C72.2493561,295.446942 101.667084,279.200591 139.154308,279.200591 C176.641532,279.200591 203.417137,289.592483 219.481122,310.376267 C251.857922,288.878304 277.205311,283.076624 295.523288,292.971229 C313.841266,302.865834 323.866331,317.350652 325.598485,336.425682 C333.29983,330.233926 340.306966,328.685987 346.619895,331.781865 C352.932824,334.877743 356.472748,338.097325 357.239668,341.440609 C369.12616,320.066349 384.081096,312.472623 402.104477,318.659432 C420.127858,324.84624 430.063374,332.439966 431.911023,341.440609 C441.193661,335.001446 450.797763,331.781865 460.723328,331.781865 C470.648893,331.781865 477.072803,336.117249 479.995058,344.788017 C481.49369,338.67873 486.180167,334.343345 494.054489,331.781865 C501.928812,329.220384 507.989162,329.220384 512.235541,331.781865 C512.452911,313.424313 522.115948,299.228136 541.22465,289.193334 C560.333353,279.158532 582.026775,282.642839 606.304915,299.646253 C613.851651,283.050234 624.331358,276.235014 637.744035,279.200591 C637.744035,305.506485 638.829357,480.273512 641,803.501674 L-16,807 L-16,303.80268 Z" id="Path-77" fill="#FFFFFF" mask="url(#mask-3)"></path>
            <g id="A1：normal" mask="url(#mask-3)">
                <g transform="translate(30.000000, 643.000000)" id="Group-4">
                    <g>
                        <rect id="Rectangle-29" fill="#1492FF" x="0" y="0" width="560" height="105" rx="10"></rect>
                        <text id="添加发票" font-family="MicrosoftYaHei, Microsoft YaHei" font-size="36" font-weight="normal" fill="#FFFFFF">
                            <tspan x="244.394366" y="66">登录</tspan>
                        </text>
                    </g>
                </g>
            </g>
            <g id="Group-2" mask="url(#mask-3)">
                <g transform="translate(30.000000, 416.000000)">
                    <g id="验证码" stroke="none" transform="translate(20.000000, 0.000000)" fill-rule="evenodd" stroke-width="1">
                        <g id="yanzhengma-3" transform="translate(3.333333, 0.000000)" fill="#666666">
                            <path d="M21.9145394,49.9889012 C19.9112098,49.9889012 17.5138735,49.3063263 14.9722531,48.0133185 C12.5804661,46.7924528 10.1664817,45.0943396 8.00776915,43.0965594 C5.70477248,40.9711432 3.76803552,38.5793563 2.40843507,36.18202 C0.821309656,33.3851276 0.0166481687,30.6215316 0.0166481687,27.9689234 L0.0166481687,9.32852386 C0.0166481687,8.57935627 0.316315205,7.8745838 0.860155383,7.35294118 C1.37069922,6.8590455 2.04772475,6.57602664 2.763596,6.55937847 L2.78024417,6.55937847 L3.91231964,6.5427303 C4.01220866,6.5427303 8.10210877,6.43174251 12.2697003,4.79467259 C16.5649279,3.11320755 19.345172,1.2208657 19.5782464,1.05438402 L20.2774695,0.560488346 C20.754717,0.227524972 21.3318535,0.0443951165 21.9145394,0.0443951165 C22.5027747,0.0443951165 23.063263,0.221975583 23.5349612,0.549389567 L24.2674806,1.05993341 C24.600444,1.28745838 27.3473918,3.13540511 31.5538291,4.78357381 C35.7214206,6.42064373 39.8057714,6.53163152 39.9167592,6.53163152 L41.054384,6.54827969 C41.7702553,6.56492786 42.4472808,6.84794673 42.9578246,7.3418424 C43.5016648,7.86903441 43.8013319,8.56825749 43.8013319,9.31742508 L43.8124306,27.963374 C43.8124306,30.6159822 43.0077691,33.3795782 41.4206437,36.1764706 C40.0610433,38.5738069 38.1243063,40.9655938 35.8213097,43.09101 C33.6570477,45.0887902 31.2486127,46.7869034 28.8512764,48.0077691 C26.3207547,49.3063263 23.917869,49.9889012 21.9145394,49.9889012 Z M3.90122087,10.427303 L3.90122087,27.963374 C3.90122087,29.9334073 4.53385128,32.0532741 5.78801332,34.2619312 C6.95338513,36.3152053 8.62930078,38.3795782 10.6381798,40.2386238 C12.5416204,41.9977802 14.6503885,43.490566 16.7369589,44.5504994 C18.7014428,45.554939 20.5382908,46.1043285 21.9145394,46.1043285 C23.290788,46.1043285 25.1331853,45.554939 27.0976693,44.5504994 C29.1786903,43.490566 31.2930078,41.9977802 33.1964484,40.2386238 C35.2108768,38.3795782 36.8867925,36.3152053 38.0521643,34.2619312 C39.3007769,32.0532741 39.9389567,29.9334073 39.9389567,27.963374 L39.9278579,10.4162042 L39.8668147,10.4162042 C39.4561598,10.4051054 34.8612653,10.2497225 30.1387347,8.4017758 C25.8046615,6.7036626 22.6692564,4.68923418 21.9977802,4.21198668 L21.9200888,4.15649279 L21.8479467,4.20643729 C21.2874584,4.59489456 18.2963374,6.60932297 13.6958935,8.41287458 C8.98446171,10.2663707 4.38401776,10.4217536 3.97336293,10.427303 L3.90122087,10.427303 Z M3.9345357,6.5427303 L3.91786903,6.5427303 L3.9345357,6.5427303 Z M19.5783204,1.08768036 C19.5449871,1.12101369 19.5283204,1.13768036 19.5116537,1.13768036 L19.5783204,1.08768036 Z M24.2952275,1.08213097 L24.3618942,1.13213097 C24.3452275,1.13213097 24.3285609,1.1154643 24.2952275,1.08213097 Z M19.2286349,33.4850166 C18.3018868,33.4850166 17.4250832,33.1243063 16.7702553,32.463929 L12.1642619,27.8579356 C11.4039956,27.0976693 11.4039956,25.8712542 12.1642619,25.1109878 C12.9245283,24.3507214 14.1509434,24.3507214 14.9112098,25.1109878 L19.2286349,29.4284129 L28.917869,19.7391787 C29.6781354,18.9789123 30.9045505,18.9789123 31.6648169,19.7391787 C32.4250832,20.4994451 32.4250832,21.7258602 31.6648169,22.4861265 L21.6925638,32.4583796 C21.0432852,33.1187569 20.1664817,33.4850166 19.2286349,33.4850166 Z" id="Shape" fill-rule="nonzero"></path>
                        </g>
                    </g>
                    <g id="请输入用户名" stroke="none" transform="translate(100.000000, 5.000000)" font-family="MicrosoftYaHei, Microsoft YaHei" font-size="28" font-weight="normal">
                        <text fill="#999999">
                            <tspan x="0" y="30">请输入验证码</tspan>
                        </text>
                    </g>
                    <path d="M0,80 L560,80" id="Line" stroke="#DDDDDD" stroke-width="1" stroke-linecap="square"></path>
                </g>
            </g>
            <path d="M65.984375,540.101562 L62.515625,540.78125 L64.9414062,543.816406 L63.4414062,544.847656 L61.4960938,541.496094 L59.5273438,544.847656 L58.0273438,543.816406 L60.4414062,540.78125 L56.9492188,540.101562 L57.5585938,538.414062 L60.8632812,539.679688 L60.546875,535.847656 L62.4335938,535.847656 L62.1054688,539.679688 L65.4101562,538.414062 L65.984375,540.101562 Z M83.515625,538.308594 L92.1640625,538.308594 L92.1640625,534.277344 L94.0859375,534.277344 L94.0859375,538.308594 L102.6875,538.308594 L102.6875,553.777344 C102.6875,555.761729 101.710947,556.746094 99.7578125,556.730469 C98.7265573,556.730469 97.460945,556.714844 95.9609375,556.683594 C95.9140623,556.152341 95.7968759,555.47266 95.609375,554.644531 C97.0937574,554.769532 98.3281201,554.839844 99.3125,554.855469 C100.29688,554.886719 100.789062,554.394536 100.789062,553.378906 L100.789062,540.089844 L94.0390625,540.089844 C93.9765622,541.511726 93.8046889,542.777338 93.5234375,543.886719 C96.2890763,546.10548 98.523429,548.058585 100.226562,549.746094 L98.796875,551.269531 C97.1249916,549.441397 95.1796986,547.542979 92.9609375,545.574219 C91.8984322,547.871105 89.8750149,549.871085 86.890625,551.574219 C86.2343717,550.667964 85.7968761,550.10547 85.578125,549.886719 C88.1250127,548.542962 89.8671828,547.050789 90.8046875,545.410156 C91.5546912,544.207025 91.9921869,542.433605 92.1171875,540.089844 L85.4140625,540.089844 L85.4140625,556.941406 L83.515625,556.941406 L83.515625,538.308594 Z M128.703125,549.324219 C128.703125,552.011732 127.648448,553.464843 125.539062,553.683594 C124.742184,553.777344 123.679694,553.746095 122.351562,553.589844 C122.273437,553.027341 122.171876,552.339848 122.046875,551.527344 C123.187506,551.714845 124.164058,551.808594 124.976562,551.808594 C126.351569,551.808594 126.976563,550.863291 126.851562,548.972656 C126.789062,547.300773 125.593762,545.589853 123.265625,543.839844 C124.281255,541.824209 125.312495,539.582044 126.359375,537.113281 L121.578125,537.113281 L121.578125,557.105469 L119.796875,557.105469 L119.796875,535.378906 L128.234375,535.378906 L128.234375,537.300781 C127.624997,538.878914 126.679694,540.925769 125.398438,543.441406 C127.601574,545.160165 128.703125,547.121083 128.703125,549.324219 Z M107.28125,547.425781 L117.40625,547.425781 L117.40625,556.964844 L115.671875,556.964844 L115.671875,555.230469 L109.015625,555.230469 L109.015625,556.988281 L107.28125,556.988281 L107.28125,547.425781 Z M115.671875,548.996094 L109.015625,548.996094 L109.015625,553.613281 L115.671875,553.613281 L115.671875,548.996094 Z M105.59375,543.417969 L113.09375,543.417969 C114.023442,541.808586 114.781247,540.33985 115.367188,539.011719 L117.101562,539.902344 C116.421872,541.08985 115.699223,542.261713 114.933594,543.417969 L119.023438,543.417969 L119.023438,544.988281 L105.59375,544.988281 L105.59375,543.417969 Z M106.109375,537.230469 L111.96875,537.230469 C111.664061,536.52734 111.203128,535.667974 110.585938,534.652344 L112.203125,533.902344 C112.906254,535.074225 113.406249,536.003903 113.703125,536.691406 L112.554688,537.230469 L118.601562,537.230469 L118.601562,538.800781 L106.109375,538.800781 L106.109375,537.230469 Z M107.679688,540.019531 L109.109375,539.152344 C109.890629,540.261724 110.601559,541.371088 111.242188,542.480469 L109.648438,543.394531 C109.16406,542.410151 108.507817,541.285163 107.679688,540.019531 Z M132.40625,547.425781 C133.156254,547.816408 133.773435,548.105468 134.257812,548.292969 C133.210932,552.199238 132.453127,555.082022 131.984375,556.941406 L130.0625,556.050781 C130.98438,553.441393 131.765622,550.566422 132.40625,547.425781 Z M131.515625,534.628906 C132.468755,535.425785 133.656243,536.503899 135.078125,537.863281 C134.562497,538.363284 134.093752,538.832029 133.671875,539.269531 C132.531244,538.0039 131.406256,536.847661 130.296875,535.800781 L131.515625,534.628906 Z M130.460938,540.652344 C131.773444,541.714849 133.015619,542.769526 134.1875,543.816406 C133.781248,544.238283 133.328127,544.730466 132.828125,545.292969 C131.421868,543.902337 130.250005,542.78516 129.3125,541.941406 L130.460938,540.652344 Z M150.03125,534.183594 L151.742188,534.183594 L151.742188,554.128906 C151.742188,555.92579 150.875009,556.824219 149.140625,556.824219 C148.390621,556.824219 147.500005,556.808594 146.46875,556.777344 C146.40625,556.199216 146.296876,555.558597 146.140625,554.855469 C147.14063,554.964844 147.992184,555.019531 148.695312,555.019531 C149.585942,555.019531 150.03125,554.574223 150.03125,553.683594 L150.03125,534.183594 Z M148.015625,551.621094 L146.375,551.621094 L146.375,536.082031 L148.015625,536.082031 L148.015625,551.621094 Z M135.523438,535.472656 L144.359375,535.472656 L144.359375,550.285156 L142.671875,550.285156 L142.671875,537.113281 L137.210938,537.113281 L137.210938,550.285156 L135.523438,550.285156 L135.523438,535.472656 Z M139.179688,539.128906 L140.890625,539.128906 L140.890625,544.941406 C140.890625,547.316418 140.671877,549.222649 140.234375,550.660156 C142.265635,552.222664 144.031242,553.6289 145.53125,554.878906 L144.265625,556.308594 C143.015619,555.121088 141.468759,553.761726 139.625,552.230469 C138.656245,554.152353 136.914075,555.847649 134.398438,557.316406 C134.054686,556.816404 133.671877,556.316409 133.25,555.816406 C135.578137,554.47265 137.171871,552.980477 138.03125,551.339844 C138.796879,549.917962 139.179688,547.800795 139.179688,544.988281 L139.179688,539.128906 Z M160.296875,538.707031 L168.851562,538.707031 C168.835937,537.261712 168.828125,535.691415 168.828125,533.996094 L170.679688,533.996094 C170.648437,535.855478 170.640625,537.425775 170.65625,538.707031 L176.445312,538.707031 L176.445312,540.417969 L170.691406,540.417969 C170.847657,547.027377 171.585931,551.527332 172.90625,553.917969 C173.390627,554.730473 173.796873,555.136719 174.125,555.136719 C174.390626,555.136719 174.578124,554.824222 174.6875,554.199219 C174.843751,553.246089 174.960937,552.003914 175.039062,550.472656 C175.710941,550.738283 176.296873,550.941406 176.796875,551.082031 C176.593749,552.847665 176.398438,554.191402 176.210938,555.113281 C175.960936,556.425788 175.304693,557.082031 174.242188,557.082031 C173.367183,557.082031 172.500004,556.480475 171.640625,555.277344 C170.046867,552.964832 169.132814,548.011757 168.898438,540.417969 L160.296875,540.417969 L160.296875,538.707031 Z M159.875,553.753906 C161.054693,553.597655 162.289056,553.41797 163.578125,553.214844 L163.578125,545.949219 L160.226562,545.949219 L160.226562,544.285156 L168.335938,544.285156 L168.335938,545.949219 L165.3125,545.949219 L165.3125,552.945312 C166.539069,552.742186 167.812493,552.519532 169.132812,552.277344 C169.101562,552.902347 169.085938,553.511716 169.085938,554.105469 C165.664045,554.652346 162.750012,555.144529 160.34375,555.582031 L159.875,553.753906 Z M160.765625,548.996094 C160.84375,549.871098 160.929687,550.628903 161.023438,551.269531 C159.976557,552.269536 158.929693,553.308588 157.882812,554.386719 C157.398435,554.886721 156.992189,555.363279 156.664062,555.816406 L155.351562,554.316406 C155.89844,553.707028 156.171875,552.957036 156.171875,552.066406 L156.171875,543.441406 L153.453125,543.441406 L153.453125,541.777344 L157.953125,541.777344 L157.953125,551.855469 C158.796879,551.042965 159.73437,550.089849 160.765625,548.996094 Z M155.75,534.605469 C157.156257,535.980476 158.39062,537.277338 159.453125,538.496094 L157.90625,539.832031 C156.92187,538.53515 155.757819,537.191413 154.414062,535.800781 L155.75,534.605469 Z M171.570312,535.636719 L172.648438,534.511719 C173.898444,535.433598 174.890621,536.24609 175.625,536.949219 L174.335938,538.261719 C173.476558,537.339839 172.554692,536.464848 171.570312,535.636719 Z M177.5,555.136719 C184.312534,551.199199 187.914061,544.293018 188.304688,534.417969 L190.367188,534.417969 C190.28125,536.089852 190.117189,537.683586 189.875,539.199219 C191.81251,547.011758 195.453098,552.152331 200.796875,554.621094 C200.140622,555.339847 199.562502,556.019528 199.0625,556.660156 C194.421852,554.035143 191.113291,549.390658 189.136719,542.726562 C187.425773,549.164095 184.039088,553.894516 178.976562,556.917969 C178.554685,556.339841 178.062503,555.746097 177.5,555.136719 Z M205.25,535.097656 L221,535.097656 L221,542.386719 L219.125,542.386719 L219.125,541.519531 L207.125,541.519531 L207.125,542.386719 L205.25,542.386719 L205.25,535.097656 Z M212.046875,546.066406 L213.945312,546.066406 C213.960938,546.91016 213.9375,547.824214 213.875,548.808594 C213.828125,549.511722 213.734376,550.160153 213.59375,550.753906 C216.968767,552.082038 220.65623,553.675772 224.65625,555.535156 L223.601562,557.292969 C220.554672,555.714836 217.015645,554.074227 212.984375,552.371094 C212.703124,552.933597 212.343752,553.425779 211.90625,553.847656 C210.093741,555.535165 207.031272,556.722653 202.71875,557.410156 C202.453124,556.753903 202.109377,556.160159 201.6875,555.628906 C206.078147,554.957028 208.984368,553.917976 210.40625,552.511719 C211.35938,551.636714 211.882812,550.347665 211.976562,548.644531 C212.039063,547.769527 212.0625,546.91016 212.046875,546.066406 Z M203.960938,543.722656 L222.3125,543.722656 L222.3125,552.277344 L220.4375,552.277344 L220.4375,545.363281 L205.835938,545.363281 L205.835938,552.417969 L203.960938,552.417969 L203.960938,543.722656 Z M219.125,539.878906 L219.125,536.738281 L207.125,536.738281 L207.125,539.878906 L219.125,539.878906 Z M235.578125,556.964844 L233.75,556.964844 L233.75,545.082031 L246.78125,545.082031 L246.78125,554.199219 C246.78125,555.886727 245.914071,556.738281 244.179688,556.753906 C243.257808,556.769531 242.078132,556.777344 240.640625,556.777344 C240.5625,556.277341 240.445313,555.675785 240.289062,554.972656 C241.648444,555.066407 242.757808,555.113281 243.617188,555.113281 C244.507817,555.113281 244.953125,554.707035 244.953125,553.894531 L244.953125,552.722656 L235.578125,552.722656 L235.578125,556.964844 Z M231.6875,542.175781 L239.257812,542.175781 L239.257812,540.558594 L233.257812,540.558594 L233.257812,539.082031 L239.257812,539.082031 L239.257812,537.511719 L232.4375,537.511719 L232.4375,536.035156 L239.257812,536.035156 L239.257812,533.925781 L241.15625,533.925781 L241.15625,536.035156 L248.304688,536.035156 L248.304688,537.511719 L241.15625,537.511719 L241.15625,539.082031 L247.695312,539.082031 L247.695312,540.558594 L241.15625,540.558594 L241.15625,542.175781 L248.773438,542.175781 L248.773438,543.652344 L231.6875,543.652344 L231.6875,542.175781 Z M232.835938,551.175781 C232.882813,551.957035 232.9375,552.636716 233,553.214844 C231.312492,554.339849 229.882818,555.355464 228.710938,556.261719 L227.632812,554.714844 C228.164065,554.214841 228.429688,553.535161 228.429688,552.675781 L228.429688,543.816406 L225.570312,543.816406 L225.570312,542.105469 L230.210938,542.105469 L230.210938,553.027344 C231.085942,552.433591 231.960933,551.816409 232.835938,551.175781 Z M244.953125,546.582031 L235.578125,546.582031 L235.578125,548.199219 L244.953125,548.199219 L244.953125,546.582031 Z M235.578125,551.269531 L244.953125,551.269531 L244.953125,549.652344 L235.578125,549.652344 L235.578125,551.269531 Z M228.21875,534.722656 C229.500006,535.988288 230.632808,537.167963 231.617188,538.261719 L229.976562,539.621094 C228.898432,538.230462 227.843755,536.996099 226.8125,535.917969 L228.21875,534.722656 Z M251.46875,545.691406 L253.578125,545.691406 L253.578125,541.425781 L255.125,541.425781 L255.125,545.691406 L257.375,545.691406 L257.375,547.238281 L255.125,547.238281 L255.125,550.449219 C255.953129,550.339843 256.796871,550.214844 257.65625,550.074219 C257.578125,550.667972 257.523438,551.207029 257.492188,551.691406 C256.695309,551.800782 255.906254,551.910156 255.125,552.019531 L255.125,557.246094 L253.578125,557.246094 L253.578125,552.253906 C252.312494,552.441407 251.039069,552.636718 249.757812,552.839844 L249.5,551.128906 C250.843757,550.988281 252.203118,550.832032 253.578125,550.660156 L253.578125,547.238281 L249.828125,547.238281 L249.828125,545.621094 C250.421878,543.94921 251.039059,541.824232 251.679688,539.246094 L249.617188,539.246094 L249.617188,537.746094 L252.054688,537.746094 C252.320314,536.621088 252.593749,535.417975 252.875,534.136719 L254.5625,534.511719 C254.265624,535.652349 253.984376,536.730464 253.71875,537.746094 L257.960938,537.746094 L257.960938,539.246094 L253.320312,539.246094 C252.632809,541.777356 252.015628,543.925772 251.46875,545.691406 Z M259.671875,557.199219 L258.171875,557.199219 L258.171875,543.394531 L264.40625,543.394531 L264.40625,554.925781 C264.40625,556.300788 263.773444,556.988281 262.507812,556.988281 C262.023435,556.988281 261.414066,556.980469 260.679688,556.964844 C260.601562,556.621092 260.492188,556.136722 260.351562,555.511719 C260.976566,555.558594 261.546872,555.582031 262.0625,555.582031 C262.625003,555.582031 262.90625,555.269534 262.90625,554.644531 L262.90625,551.925781 L259.671875,551.925781 L259.671875,557.199219 Z M266.445312,534.300781 L266.046875,534.816406 C267.875009,537.56642 270.164049,539.53515 272.914062,540.722656 C272.38281,541.347659 271.976564,541.886716 271.695312,542.339844 C270.632807,541.746091 269.648442,541.074223 268.742188,540.324219 L268.742188,541.496094 L260.609375,541.496094 L260.609375,540.464844 C259.687495,541.230473 258.726567,541.933591 257.726562,542.574219 C257.25781,541.964841 256.843752,541.488283 256.484375,541.144531 C259.593766,539.332022 262.101553,537.050795 264.007812,534.300781 L266.445312,534.300781 Z M269.9375,542.972656 L271.53125,542.972656 L271.53125,554.386719 C271.53125,556.121102 270.796882,556.996094 269.328125,557.011719 C268.531246,557.027344 267.617193,557.011719 266.585938,556.964844 C266.507812,556.386716 266.398438,555.800784 266.257812,555.207031 C267.242192,555.332032 268.085934,555.394531 268.789062,555.394531 C269.554691,555.394531 269.9375,554.988285 269.9375,554.175781 L269.9375,542.972656 Z M264.898438,536.035156 C263.726557,537.503914 262.460944,538.832025 261.101562,540.019531 L268.367188,540.019531 C267.039056,538.863275 265.882817,537.535164 264.898438,536.035156 Z M266.351562,544.097656 L267.851562,544.097656 L267.851562,552.628906 L266.351562,552.628906 L266.351562,544.097656 Z M259.671875,550.613281 L262.90625,550.613281 L262.90625,548.363281 L259.671875,548.363281 L259.671875,550.613281 Z M262.90625,544.824219 L259.671875,544.824219 L259.671875,547.050781 L262.90625,547.050781 L262.90625,544.824219 Z M279.992188,535.449219 L281.539062,534.347656 C283.289071,535.425787 285.210927,538.191384 287.304688,542.644531 C290.226577,549.035188 293.39842,552.933587 296.820312,554.339844 L295.179688,556.402344 C291.757795,554.371084 288.593765,550.089876 285.6875,543.558594 C285.453124,543.035154 285.222657,542.535159 284.996094,542.058594 C283.183585,548.269562 279.812525,553.097639 274.882812,556.542969 C274.460935,555.917966 273.984378,555.332034 273.453125,554.785156 C278.523463,551.589828 281.937491,546.535191 283.695312,539.621094 C282.468744,537.574209 281.234381,536.183597 279.992188,535.449219 Z M300.734375,538.566406 L300.195312,545.011719 L302.5625,545.011719 L303.171875,537.113281 L297.851562,537.113281 L297.851562,535.519531 L304.953125,535.519531 L304.226562,545.011719 L305.703125,545.011719 C305.593749,548.30861 305.492188,551.019521 305.398438,553.144531 C305.351562,555.519543 304.320323,556.707031 302.304688,556.707031 C301.460933,556.707031 300.468756,556.683594 299.328125,556.636719 C299.25,556.058591 299.148438,555.44141 299.023438,554.785156 C300.148443,554.925782 301.148433,554.996094 302.023438,554.996094 C303.117193,554.996094 303.695312,554.332038 303.757812,553.003906 C303.851563,551.285148 303.929687,549.152356 303.992188,546.605469 L298.367188,546.605469 L299.117188,538.566406 L300.734375,538.566406 Z M305.890625,554.386719 L314.351562,554.386719 C315.476568,551.605455 316.476558,548.699234 317.351562,545.667969 L319.132812,546.230469 C318.210933,549.027358 317.23438,551.746081 316.203125,554.386719 L320.328125,554.386719 L320.328125,556.003906 L305.890625,556.003906 L305.890625,554.386719 Z M314.398438,534.207031 L313.953125,534.957031 C315.843759,538.316423 318.187486,540.761711 320.984375,542.292969 C320.484373,542.917972 320.070314,543.464841 319.742188,543.933594 C316.992174,541.902334 314.750009,539.457046 313.015625,536.597656 C311.421867,539.425795 309.195327,541.964833 306.335938,544.214844 C306.054686,543.808592 305.664065,543.316409 305.164062,542.738281 C308.273453,540.58202 310.656242,537.738299 312.3125,534.207031 L314.398438,534.207031 Z M308.28125,542.832031 L317.9375,542.832031 L317.9375,544.449219 L308.28125,544.449219 L308.28125,542.832031 Z M311.117188,545.832031 L312.78125,545.386719 C313.437503,547.73048 313.97656,549.777335 314.398438,551.527344 L312.6875,552.019531 C312.234373,549.86327 311.71094,547.800791 311.117188,545.832031 Z M307.085938,546.886719 L308.726562,546.371094 C309.492191,548.589855 310.13281,550.566398 310.648438,552.300781 L308.914062,552.886719 C308.398435,550.886709 307.789066,548.886729 307.085938,546.886719 Z M297.265625,550.121094 C299.078134,549.761717 301.070302,549.324221 303.242188,548.808594 C303.226562,549.433597 303.234375,549.988279 303.265625,550.472656 C301.484366,550.847658 299.601572,551.308591 297.617188,551.855469 L297.265625,550.121094 Z M327.429688,554.128906 L330.6875,554.128906 L330.6875,541.167969 L332.492188,541.167969 L332.492188,554.128906 L336.21875,554.128906 L336.21875,536.996094 L328.71875,536.996094 L328.71875,535.261719 L344.375,535.261719 L344.375,536.996094 L338.09375,536.996094 L338.09375,544.050781 L343.53125,544.050781 L343.53125,545.785156 L338.09375,545.785156 L338.09375,554.128906 L344.75,554.128906 L344.75,555.863281 L327.429688,555.863281 L327.429688,554.128906 Z M328.8125,548.246094 C328.875,548.792971 329.023436,549.472652 329.257812,550.285156 C327.367178,552.160166 325.937505,553.652338 324.96875,554.761719 L323.632812,553.238281 C324.101565,552.582028 324.335938,551.800786 324.335938,550.894531 L324.335938,543.558594 L321.5,543.558594 L321.5,541.871094 L326.140625,541.871094 L326.140625,551.011719 C326.859379,550.324215 327.749995,549.40235 328.8125,548.246094 Z M323.773438,534.417969 C325.601572,536.277353 326.882809,537.62109 327.617188,538.449219 L325.976562,539.832031 C324.992183,538.550775 323.781257,537.160164 322.34375,535.660156 L323.773438,534.417969 Z M345.40625,547.050781 C347.31251,544.410143 348.691402,541.394548 349.542969,538.003906 L346.085938,538.003906 L346.085938,536.269531 L354.851562,536.269531 L354.851562,538.003906 L351.347656,538.003906 C350.855466,539.964854 350.230473,541.79296 349.472656,543.488281 L354.007812,543.488281 L354.007812,556.191406 L352.34375,556.191406 L352.34375,554.574219 L349.414062,554.574219 L349.414062,556.496094 L347.75,556.496094 L347.75,546.734375 C347.335935,547.398441 346.89844,548.035153 346.4375,548.644531 C346.203124,548.207029 345.859377,547.675784 345.40625,547.050781 Z M358.71875,538.003906 L358.109375,544.871094 L363.628906,544.871094 L364.414062,537.160156 L355.765625,537.160156 L355.765625,535.472656 L366.382812,535.472656 L365.398438,544.871094 L367.882812,544.871094 C367.757812,548.042985 367.632813,550.792957 367.507812,553.121094 C367.367187,555.44923 366.257823,556.613281 364.179688,556.613281 C363.132807,556.613281 361.960944,556.589844 360.664062,556.542969 C360.570312,555.964841 360.460938,555.31641 360.335938,554.597656 C361.601569,554.738282 362.742182,554.808594 363.757812,554.808594 C364.960944,554.808594 365.609375,554.144538 365.703125,552.816406 C365.828126,551.082023 365.921875,548.996106 365.984375,546.558594 L356.210938,546.558594 L356.9375,538.003906 L358.71875,538.003906 Z M352.34375,545.082031 L349.414062,545.082031 L349.414062,553.027344 L352.34375,553.027344 L352.34375,545.082031 Z M354.945312,549.722656 L364.835938,549.722656 L364.835938,551.410156 L354.945312,551.410156 L354.945312,549.722656 Z M375.710938,544.941406 L379.730469,544.941406 C379.753906,543.72265 379.765625,542.066417 379.765625,539.972656 L376.8125,539.972656 L376.8125,538.285156 L379.765625,538.285156 L379.765625,534.160156 L381.640625,534.160156 L381.640625,538.285156 L386.28125,538.285156 L386.28125,534.160156 L388.15625,534.160156 L388.15625,538.285156 L391.625,538.285156 L391.625,539.972656 L388.15625,539.972656 L388.15625,544.941406 L392.539062,544.941406 L392.539062,546.628906 L388.15625,546.628906 L388.15625,553.753906 L386.28125,553.753906 L386.28125,546.628906 L381.464844,546.628906 C381.003904,549.816422 379.656261,552.191398 377.421875,553.753906 C377.015623,553.300779 376.539065,552.824221 375.992188,552.324219 C377.90626,551.113275 379.089841,549.214857 379.542969,546.628906 L375.710938,546.628906 L375.710938,544.941406 Z M378.898438,554.714844 L384.453125,554.832031 L392.75,554.621094 C392.578124,555.136721 392.359376,555.753903 392.09375,556.472656 L384.3125,556.496094 L378.664062,556.378906 C376.085925,556.332031 374.257818,555.42579 373.179688,553.660156 C372.539059,554.253909 371.601569,555.300774 370.367188,556.800781 L369.40625,554.855469 C370.789069,553.519525 371.789059,552.562503 372.40625,551.984375 L372.40625,544.097656 L369.617188,544.097656 L369.617188,542.363281 L374.210938,542.363281 L374.210938,552.359375 C375.179692,553.890633 376.742177,554.675781 378.898438,554.714844 Z M381.617188,544.941406 L386.28125,544.941406 L386.28125,539.972656 L381.640625,539.972656 C381.640625,542.66017 381.632813,544.316403 381.617188,544.941406 Z M372.171875,534.441406 C373.359381,535.925789 374.45312,537.402336 375.453125,538.871094 C374.796872,539.292971 374.218752,539.683592 373.71875,540.042969 C372.859371,538.542961 371.843756,537.011727 370.671875,535.449219 L372.171875,534.441406 Z M401.984375,542.832031 L416.820312,542.832031 L416.820312,544.589844 L412.273438,544.589844 L412.273438,553.753906 C412.273438,555.691416 411.296885,556.660156 409.34375,556.660156 C408.031243,556.660156 406.695319,556.652344 405.335938,556.636719 C405.242187,556.011716 405.125001,555.308598 404.984375,554.527344 C406.203131,554.652344 407.429681,554.714844 408.664062,554.714844 C409.742193,554.714844 410.28125,554.183599 410.28125,553.121094 L410.28125,544.589844 L401.984375,544.589844 L401.984375,542.832031 Z M393.5,548.082031 C395.921887,546.097646 398.12499,543.308612 400.109375,539.714844 L401.75,540.722656 C400.945308,542.113288 400.093754,543.414056 399.195312,544.625 L399.195312,557.035156 L397.25,557.035156 L397.25,547.039062 C396.312495,548.101568 395.335943,549.082027 394.320312,549.980469 C394.070311,549.324215 393.796876,548.691409 393.5,548.082031 Z M403.34375,535.753906 L415.507812,535.753906 L415.507812,537.511719 L403.34375,537.511719 L403.34375,535.753906 Z M393.617188,540.652344 C396.101575,538.730459 398.101555,536.496106 399.617188,533.949219 L401.304688,534.980469 C399.492178,537.761733 397.242201,540.253895 394.554688,542.457031 C394.273436,541.863278 393.960939,541.261722 393.617188,540.652344 Z M421.320312,544.871094 L436.765625,544.871094 L436.765625,552.089844 L434.984375,552.089844 L434.984375,551.246094 L423.101562,551.246094 L423.101562,552.089844 L421.320312,552.089844 L421.320312,544.871094 Z M417.6875,554.832031 L425.539062,554.832031 C424.97656,554.285154 424.156255,553.527349 423.078125,552.558594 L424.203125,551.433594 C425.156255,552.214848 426.117183,553.050777 427.085938,553.941406 L426.125,554.832031 L431.75,554.832031 L430.953125,554.035156 C431.95313,553.128902 432.843746,552.238286 433.625,551.363281 L435.054688,552.535156 C434.320309,553.269535 433.500005,554.035152 432.59375,554.832031 L440.609375,554.832031 L440.609375,556.425781 L417.6875,556.425781 L417.6875,554.832031 Z M430.929688,534.324219 C431.289064,535.292974 431.687498,536.18359 432.125,536.996094 C433.843759,536.058589 435.343744,535.152348 436.625,534.277344 L437.773438,535.753906 C436.30468,536.628911 434.718759,537.519527 433.015625,538.425781 C433.437502,539.050784 433.898435,539.621091 434.398438,540.136719 C436.039071,539.230464 437.562493,538.308598 438.96875,537.371094 L440.140625,538.871094 C438.843744,539.667973 437.382821,540.503902 435.757812,541.378906 C437.25782,542.550787 439.007803,543.332029 441.007812,543.722656 C440.554685,544.347659 440.125002,544.980466 439.71875,545.621094 C434.749975,543.902335 431.273447,540.355496 429.289062,534.980469 L430.929688,534.324219 Z M434.984375,546.417969 L423.101562,546.417969 L423.101562,549.699219 L434.984375,549.699219 L434.984375,546.417969 Z M418.71875,537.160156 L418.71875,535.566406 L428,535.566406 L428,537.183594 C425.890614,540.777362 422.625022,543.800769 418.203125,546.253906 C417.906249,545.722654 417.578127,545.175784 417.21875,544.613281 C418.859383,543.769527 420.187495,542.957035 421.203125,542.175781 C420.218745,541.160151 419.210943,540.160161 418.179688,539.175781 L419.28125,538.074219 C420.453131,539.136724 421.531245,540.144526 422.515625,541.097656 C423.812506,539.957026 424.92187,538.644539 425.84375,537.160156 L418.71875,537.160156 Z M425,541.285156 L432.945312,541.285156 L432.945312,542.832031 L425,542.832031 L425,541.285156 Z M461.5625,545.855469 L462.921875,547.402344 C461.593743,548.277348 459.945322,549.308588 457.976562,550.496094 C459.804697,551.917976 462.085924,552.941403 464.820312,553.566406 C464.335935,554.238285 463.906252,554.878903 463.53125,555.488281 C459.281229,554.1914 456.15626,551.988297 454.15625,548.878906 L454.15625,553.964844 C454.15625,555.855478 453.18751,556.800781 451.25,556.800781 C450.32812,556.800781 449.234381,556.785156 447.96875,556.753906 C447.875,556.175778 447.765626,555.50391 447.640625,554.738281 C448.765631,554.863282 449.773433,554.933594 450.664062,554.949219 C451.773443,554.949219 452.328125,554.449224 452.328125,553.449219 L452.328125,545.058594 L441.78125,545.058594 L441.78125,543.488281 L459.265625,543.488281 L459.265625,540.980469 L444.734375,540.980469 L444.734375,539.480469 L459.265625,539.480469 L459.265625,536.996094 L444.289062,536.996094 L444.289062,535.425781 L461.023438,535.425781 L461.023438,543.488281 L464.65625,543.488281 L464.65625,545.058594 L454.15625,545.058594 L454.15625,545.597656 C454.796878,547.003913 455.624995,548.238276 456.640625,549.300781 C458.453134,548.1289 460.093743,546.980474 461.5625,545.855469 Z M441.453125,553.097656 C444.51564,552.144526 447.83592,551.011725 451.414062,549.699219 C451.539063,550.386722 451.656249,550.980466 451.765625,551.480469 C448.656234,552.558599 445.460954,553.6914 442.179688,554.878906 L441.453125,553.097656 Z M444.710938,545.691406 C446.210945,546.597661 447.734367,547.582026 449.28125,548.644531 L448.132812,550.191406 C446.71093,549.113276 445.210945,548.066411 443.632812,547.050781 L444.710938,545.691406 Z" id="*-内部测试人员请输入验证码进行登录" fill="#999999" mask="url(#mask-3)"></path>
            <g id="分组" mask="url(#mask-3)">
                <g transform="translate(346.000000, 50.000000)" id="Group">
                    <g>
                        <g id="Group-41" transform="translate(123.000000, 28.000000)">
                            <g>
                                <polygon id="Path-96" fill="#4C3E35" points="26 116.945312 36.5766602 116.945312 32.4955964 165 26 165"></polygon>
                                <polygon id="Path-97" fill="#4C3E35" points="47.0939838 166 46.0498047 117.04541 56.0400391 116.14502 53.3319128 166"></polygon>
                                <path d="M11.1904297,42.7529297 L16.3183594,48.1923828 L28.5322266,36.6572266 L35.1835938,33.7832031 C44.0403646,32.3154297 50.1227214,33.2734375 53.4306641,36.6572266 C58.3925781,41.7329102 62.2001953,58.3798828 64.1279297,66.5615234 C65.4130859,72.0159505 66.6901042,79.5602214 67.9589844,89.1943359 L61.3634079,90.4170357 L54.5678711,65.2827148 L56.4002582,81.8173828 L58.3925781,90.9677734 C60.0735677,101.142253 60.9140625,106.971029 60.9140625,108.454102 C60.9140625,110.678711 61.1162109,114.316406 58.3925781,115.927734 C57.8851177,116.227953 57.221011,116.47966 56.4002582,116.682855 C54.9895912,117.032096 51.8324087,117.233514 46.9287109,117.287109 L26.3505859,117.287109 C23.6695964,117.647135 22.3291016,115.96224 22.3291016,112.232422 C22.3291016,108.502604 23.6695964,89.499349 26.3505859,55.2226562 L26.3505859,49.5546875 C20.8818359,56.0039062 17.5377604,59.2285156 16.3183594,59.2285156 C15.0989583,59.2285156 11.8365885,54.3974609 6.53125,44.7353516 L11.1904297,42.7529297 Z" id="Path-100" fill="#FFFFFF"></path>
                                <path d="M40,56.9545455 L40,97.0454545" id="Line-13" stroke="#5C4C3F" stroke-linecap="square"></path>
                                <circle id="Oval-24" stroke="#000000" fill="#D8D8D8" cx="50" cy="55" r="3"></circle>
                                <path d="M27.5103184,18.8460958 C26.1678132,19.0783573 25.7203114,19.7520921 26.1678132,20.8673001 C26.8390658,22.540112 28.4544713,25 29.473557,25 C30.1529475,25 30.9950951,23.9743493 32,21.9230479 L29,18 L27.5103184,18.8460958 Z" id="Path-81" fill="#FFEFD8"></path>
                                <path d="M29,44.2811457 C29.5331431,40.4653923 30.068975,38.041652 30.6074956,37.0099247 C31.4152766,35.4623337 34.2924056,33.7634503 35.6217296,33.4599471 C36.9510536,33.1564439 44.8085382,32.1630562 46.5243525,34.5864905 C48.2401668,37.0099247 50,40.1996931 50,43.236562 C50,45.2611412 49.7691506,47.8489539 49.3074517,51" id="Path-95" stroke="#000000"></path>
                                <polygon id="Path-85" fill="#CCE8FF" points="34.7803444 34.2894742 31.5516044 36.4663234 30 42.4669175 33.3510408 43.9018319 33.3510408 48.6058224 39.1384051 57 47.2836357 44.7402515 49 43.9018319 48.1134349 38.4183583 43.8887512 33"></polygon>
                                <ellipse id="Oval-11" fill="#1994C0" cx="38" cy="173" rx="34" ry="6"></ellipse>
                                <polygon id="Path-84" fill="#2DA0FF" points="35.5367417 36.8942104 33 39.480334 37.8777947 47 40.6501322 43.2926168 42.3704624 47 45 43.9677037 45 36.8942104 43.0233993 36"></polygon>
                                <polygon id="Path-83" fill="#FFE5CD" points="36 34.3121458 36.9766978 37.7499384 40.5580795 41 44 36.8206455 44 33"></polygon>
                                <path d="M52.9778526,18 C53.6592842,19.150902 54,20.1080061 54,20.8713123 C54,21.6346186 54,22.6501592 54,23.9179342 L51.5071443,25 L49,20.0319066 L52.9778526,18 Z" id="Path-82" fill="#FFEFD8"></path>
                                <path d="M29.3451641,26 C29.2594961,25.6870466 29.1959192,25.4534313 29.1544332,25.2991541 C26.9688856,17.1715703 26.4461715,11.7570104 27.586291,9.05547436 C29.3451641,4.88778947 32.4473115,2.04985521 36.8556262,0.68328507 C39.7945027,-0.22776169 44.2679093,-0.22776169 50.2758461,0.68328507 L47.4603505,1.99462595 C51.8201168,4.61038438 54,7.51503433 54,10.7085758 C54,13.9021172 53.3034702,18.4164405 51.9104106,24.2515455 L41.9842811,14.3815576 L29.3451641,26 Z" id="Path-80" fill="#422B13"></path>
                                <path d="M29.2989271,24 C28.1749907,14.2234101 30.3774856,13.618767 33.2835751,12.8103448 C36.1896646,12.0019225 42.7594139,11.4879901 44.0190059,12.8103448 C45.278598,14.1326994 47.6458859,11.4879901 49.7700443,12.8103448 C51.8942027,14.1326994 54.0202718,19.9446002 52.465963,25.4743607 C50.9116541,31.0041212 46.1589272,34.0539917 45.0889666,34.9878097 C44.0190059,35.9216277 43.7640803,36 41.0317867,36 C38.2994932,36 30.4228634,33.7765899 29.2989271,24 Z" id="Path-79" fill="#FFEFD8"></path>
                                <path d="M62.7272386,91.6651982 L62.7272386,97.9341526 L64.4611345,97.3341062 C64.1876015,98.8373135 63.8897169,99.692171 63.5674807,99.8986784 C63.2452444,100.105186 62.7227509,100.805626 62,102 C64.4525268,100.977819 65.9517346,99.765747 66.4976234,98.3637839 C67.0435122,96.9618209 67.1445237,94.728959 66.8006579,91.6651982 L66.8006579,90 L62.7272386,90 L62.7272386,91.6651982 Z" id="Path-93" fill="#FFEDD3"></path>
                                <path d="M16.9285714,48.0714286 L28.0714286,36.9285714" id="Line-12" stroke="#CBEAFF" stroke-linecap="square"></path>
                                <polyline id="Path-87" stroke="#CBEAFF" points="10.6370769 43 6 44.6284404 15.9980469 59.8017578"></polyline>
                                <path d="M54,37 C57.0738096,40.9504899 59.580037,47.003685 61.5186821,55.1595852 C63.4573273,63.3154854 65.6177666,74.432623 68,88.5109978 L62.1157129,90" id="Path-88" stroke="#CBEAFF"></path>
                                <path d="M26,58 C24.3367741,80.7096633 23.309283,93.8844647 22.9175268,97.5244041 C22.5257707,101.164344 22.5257707,107.220499 22.9175268,115.692871 L26,117.370605" id="Path-89" stroke="#CBEAFF"></path>
                                <path d="M53.7845437,59 C55.2244648,70.3469711 55.9444254,77.6906453 55.9444254,81.0310226 C55.9444254,86.0415885 60.5428216,100.03227 60.5428216,103.237345 C60.5428216,106.44242 61.571473,112.239021 60.5428216,113.515801 C59.5141702,114.792582 58.1043071,116.037274 55.9444254,116.672852 C54.5045043,117.09657 51.1896958,117.433046 46,117.682279" id="Path-90" stroke="#CBEAFF"></path>
                                <path d="M27,90 L34,92" id="Path-91" stroke="#CBEAFF"></path>
                                <path d="M47,93 L55,90" id="Path-92" stroke="#CBEAFF"></path>
                                <path d="M0.0389858224,31.6611049 C-0.132780333,30.6727812 0.288079852,30.2411834 0.8106613,31.2295071 C1.33324275,32.2178307 1.9653599,33.0335153 2.38942958,33.0335153 C2.81349927,33.0335153 0.903224963,28.9426267 1.77490382,28.6006413 C2.64658268,28.2586559 3.21364909,32.9587865 3.78688931,32.2178307 C4.36012953,31.476875 3.12873691,26 3.78688931,26 C4.4450417,26 5.15437022,31.07384 5.78550534,31.2295071 C6.41664045,31.3851741 5.89011545,26.7093727 6.66296369,26.7093727 C7.43581192,26.7093727 7.51506635,30.6088361 8.03931375,32.2178307 C8.56356115,33.8268254 8.56356115,35.2312536 9.4395881,35.2312536 C10.315615,35.2312536 10.6782562,33.1574674 11.4869909,33.6045886 C12.2957256,34.0517098 12.0338608,35.4021366 11.4869909,37.6324427 C10.940121,39.8627488 10.3620804,40.9478664 9.4395881,42.0290954 C8.5170958,43.1103243 7.11940152,43.1775924 5.45314541,42.7683389 C3.78688931,42.3590854 2.8313252,39.7196355 2.38942958,38.6217072 C1.94753396,37.5237788 0.210751978,32.6494285 0.0389858224,31.6611049 Z" id="Path-86" fill="#FFEFD8"></path>
                                <path d="M47.8401345,165.267496 C47.2800448,168.493618 47,170.443855 47,171.118206 C47,172.129733 55.8909301,171.993913 58.2157734,171.993913 C60.5406166,171.993913 57.1576935,170.006864 55.0558099,168.633748 C53.6545541,167.718337 52.5895328,166.173754 51.8607459,164 L47.8401345,165.267496 Z" id="Path-99" fill="#120E0D"></path>
                                <path d="M29.49145,45 C32.49715,49.4147574 34,52.1887562 34,53.3219965 C34,55.0218569 33.4820618,58.6918551 31.0081995,58.9844093 C28.5343372,59.2769635 26,55.3805598 26,53.3219965 C26,51.2634333 27.1446338,45.9479029 27.5838083,45.4739515 C27.8765914,45.1579838 28.5124719,45 29.49145,45 Z" id="Path-94" stroke="#2A2A2A"></path>
                                <path d="M26.882854,165.079376 C26.4407948,166.796414 25.6795598,167.96998 24.5991491,168.600072 C22.978533,169.54521 19,170.410497 19,171.855949 C19,173.301401 30.7568155,173.198542 31.6174817,172.527245 C32.4781479,171.855949 31.6174817,164.775307 31.6174817,164.172133 C31.6174817,163.770017 30.0392725,164.072431 26.882854,165.079376 Z" id="Path-98" fill="#120E0D"></path>
                            </g>
                        </g>
                        <g id="Group-44">
                            <g>
                                <g id="Group-42" transform="translate(30.000000, 0.000000)">
                                    <path d="M0.887695313,6.27050781 C2.78483073,2.92708333 5.09114583,1.0016276 7.80664063,0.494140625 C10.5221354,-0.0133463542 12.7382813,0.464518229 14.4550781,1.92773437 L14.4550781,166.491943 C11.4148763,167.173747 8.87394206,167.173747 6.83227539,166.491943 C3.76977539,165.469238 2.45214844,164.648437 0.887695313,160.849609 C0.887695313,122.852214 0.887695313,71.3258464 0.887695313,6.27050781 Z" id="Path-101" fill="#3F9CC2"></path>
                                    <path d="M6.95207635,5.62988281 C8.27780433,2.41373698 10.2550244,0.805664063 12.8837364,0.805664062 C15.5124485,0.805664062 32.7442189,4.46158854 64.5790475,11.7734375 C68.8596825,13.7910156 71,16.8665365 71,21 C71,25.1334635 71,67.5009766 71,148.102539 C69.7772179,152.101237 67.6369004,154.719076 64.5790475,155.956055 C61.5211946,157.193034 44.2894242,160.977214 12.8837364,167.308594 C10.206544,167.337891 8.22932398,165.453125 6.95207635,161.654297 C5.67482872,157.855469 5.67482872,105.847331 6.95207635,5.62988281 Z" id="Path-102" fill="#82C8FF"></path>
                                    <polygon id="Path-103" fill="#FFFFFF" points="11.7167969 18.0683594 67 27.2041016 67 140.866211 11.7167969 149.483398"></polygon>
                                    <path d="M35.5,15.5 L51.5,18.5" id="Line-14" stroke="#FFFFFF" stroke-width="2" stroke-linecap="round"></path>
                                    <ellipse id="Oval-25" fill="#FFFFFF" cx="43" cy="153" rx="4" ry="5"></ellipse>
                                    <ellipse id="Oval-25-Copy" fill="#FFFFFF" cx="29.5" cy="15" rx="1.5" ry="2"></ellipse>
                                </g>
                                <g id="Group-43-Copy" transform="translate(0.000000, 28.000000)">
                                    <polygon id="Path-105" fill="#4BA5C0" points="3 0 0 2.12036133 0.144307149 43.3720703 3 45"></polygon>
                                    <g id="Path-104">
                                        <use fill="black" fill-opacity="1" filter="url(#filter-5)" xlink:href="#path-4"></use>
                                        <use fill="#FFFFFF" fill-rule="evenodd" xlink:href="#path-4"></use>
                                    </g>
                                    <path d="M44,17 L66,20" id="Line-15" stroke="#D5EDFF" stroke-width="2" stroke-linecap="round"></path>
                                    <path d="M35,27.5 L65,31" id="Line-15-Copy" stroke="#D5EDFF" stroke-width="2" stroke-linecap="round"></path>
                                    <ellipse id="Oval-26" fill="#D5EDFF" cx="20.5" cy="22" rx="8.5" ry="11"></ellipse>
                                </g>
                                <g id="Group-43" transform="translate(9.000000, 84.000000)">
                                    <polygon id="Path-105" fill="#4B9CC0" points="3 0 0 1.81591797 0.144307149 42.909668 3 45"></polygon>
                                    <g id="Path-104">
                                        <use fill="black" fill-opacity="1" filter="url(#filter-7)" xlink:href="#path-6"></use>
                                        <use fill="#BDE2FF" fill-rule="evenodd" xlink:href="#path-6"></use>
                                    </g>
                                    <path d="M46,17 L65,17" id="Line-15" stroke="#FFFFFF" stroke-width="2" stroke-linecap="round"></path>
                                    <path d="M35,27.5 L64.5,27.5" id="Line-15-Copy" stroke="#FFFFFF" stroke-width="2" stroke-linecap="round"></path>
                                    <ellipse id="Oval-26" fill="#FFFFFF" cx="20.5" cy="21.5" rx="8.5" ry="10.5"></ellipse>
                                </g>
                            </g>
                        </g>
                    </g>
                </g>
            </g>
            <g id="feiji-2" mask="url(#mask-3)">
                <g transform="translate(221.000000, 63.000000)">
                    <g transform="translate(48.000000, 50.000000) scale(-1, 1) translate(-48.000000, -50.000000) ">
                        <path d="M10.6960742,31.8763961 C9.91905479,32.2170467 9.08881339,31.8290383 8.85109503,31.0139868 L0.0675474297,0.904950409 C-0.170170933,0.090105803 0.239867897,-0.235341649 0.978681932,0.181800522 L35.4654908,19.6532563 C36.2044644,20.0703985 36.1732115,20.6908923 35.3965112,21.0318119 L26.3871535,24.9871152 C25.6105046,25.3280865 24.4893229,25.1106957 23.8961102,24.5037083 L2.49472123,2.60837923 C1.9015086,2.00144357 1.83774719,2.05669008 2.35296404,2.73116304 L20.1879755,26.0777785 C20.7033519,26.7525153 20.4892443,27.5828269 19.7120705,27.9237982 L10.6960742,31.8763961 Z" id="Shape" fill="#FFFFFF" fill-rule="nonzero"></path>
                        <path d="M22.9920421,35.3312045 C23.0563477,35.9490409 22.7237798,36.1810929 22.2530023,35.8474261 L16.3345783,31.6510814 C15.8635492,31.3170789 15.8935733,30.8321809 16.4012109,30.5733474 L21.2653711,28.0939679 C21.7728635,27.8354159 22.2411639,28.1290053 22.3053679,28.7466197 L22.9920421,35.3312045 Z" id="Shape" fill="#FFFFFF" fill-rule="nonzero"></path>
                        <path d="M32,99.359375 C35.698486,89.8946619 40.5064287,82.4792973 46.4238281,77.1132812 C56.2753906,68.1796875 76.733278,63.6436408 79.5351562,65.6855469 C85.2734375,69.8673956 79.5351562,77.1132812 73.8808594,77.1132812 C68.2265625,77.1132812 68.2265625,62.5429687 73.8808594,52.2519531 C77.6503906,45.391276 84.7539062,40.3072917 95.1914062,37" id="Path-106" stroke="#FFFFFF" stroke-dasharray="1,1" transform="translate(63.595703, 68.179688) scale(-1, 1) translate(-63.595703, -68.179688) "></path>
                    </g>
                </g>
            </g>
            <g id="Group" mask="url(#mask-3)" fill="#FFFFFF">
                <g transform="translate(40.000000, 90.000000)">
                    <path d="M25.2773438,15.5488281 C28.2773588,17.9629027 31.3476405,20.6113137 34.4882812,23.4941406 C33.7148399,24.2441444 33.0000033,24.958981 32.34375,25.6386719 C31.3710889,24.6777296 30.3867237,23.7285203 29.390625,22.7910156 C26.2617031,22.9199225 23.0625163,23.0722647 19.7929688,23.2480469 L19.7929688,31.1582031 C19.7929688,33.8300915 18.3867328,35.1660156 15.5742188,35.1660156 C14.4257755,35.1660156 12.9140719,35.1425784 11.0390625,35.0957031 C10.9218744,34.2285113 10.7695322,33.2675834 10.5820312,32.2128906 C12.5507911,32.4238292 14.0624947,32.5292969 15.1171875,32.5292969 C16.4062564,32.5292969 17.0507812,31.8964907 17.0507812,30.6308594 L17.0507812,23.3886719 C14.2031108,23.5410164 11.3086085,23.7050772 8.3671875,23.8808594 C7.03124332,23.9511722 5.70703781,24.1035145 4.39453125,24.3378906 L3.234375,21.3144531 C4.78125773,21.0332017 6.24608684,20.576175 7.62890625,19.9433594 C11.2148617,18.1855381 14.5429534,16.4160245 17.6132812,14.6347656 C13.5351359,14.9511735 10.1132951,15.2324206 7.34765625,15.4785156 C6.12890016,15.5957037 5.20312816,15.7246087 4.5703125,15.8652344 L3.4453125,12.9121094 C4.57031813,12.630858 5.62499508,12.2207058 6.609375,11.6816406 C9.55079596,10.0410074 12.4980321,8.10157369 15.4511719,5.86328125 C11.4316205,6.10937623 7.35939562,6.32617094 3.234375,6.51367188 C3.07031168,5.69335527 2.85937629,4.87305098 2.6015625,4.05273438 C13.7813059,3.63085727 23.7069879,2.98633246 32.3789062,2.11914062 L32.90625,4.61523438 C27.8202871,5.03711148 22.6582293,5.41796705 17.4199219,5.7578125 L18.84375,6.75976562 C15.1640441,9.22071543 11.7656406,11.2949134 8.6484375,12.9824219 C13.8984637,12.6894517 18.2460765,12.4082045 21.6914062,12.1386719 C24.035168,10.6386644 26.203115,9.12696074 28.1953125,7.60351562 L30.4804688,9.46679688 C24.5976268,13.6621304 17.7656639,17.5878723 9.984375,21.2441406 C14.6484608,21.0800773 20.3027012,20.833986 26.9472656,20.5058594 C25.7753848,19.427729 24.5976622,18.373052 23.4140625,17.3417969 L25.2773438,15.5488281 Z M23.203125,27.0800781 L24.9960938,25.1816406 C27.9492335,27.1504005 31.1952948,29.5058457 34.734375,32.2480469 L32.6601562,34.5332031 C29.3788898,31.8144395 26.2265776,29.3300894 23.203125,27.0800781 Z M9.45703125,25.2167969 L11.7421875,27.0097656 C8.7421725,29.7050916 5.58986027,32.3066281 2.28515625,34.8144531 C1.72265344,34.1347622 1.07812863,33.4199256 0.3515625,32.6699219 C3.39845273,30.5839739 6.43357863,28.0996238 9.45703125,25.2167969 Z M64.6875,10.5214844 C66.6562598,13.1699351 68.6718647,16.1581865 70.734375,19.4863281 C69.9140584,19.9550805 69.0468796,20.4824189 68.1328125,21.0683594 C67.5468721,20.0722606 66.9843777,19.1171921 66.4453125,18.203125 C65.3554633,18.2734379 64.2304746,18.3378903 63.0703125,18.3964844 L63.0703125,30.3144531 C63.0703125,31.7441478 63.597651,32.4589844 64.6523438,32.4589844 L66.375,32.4589844 C67.5234432,32.4589844 68.1796867,31.8730527 68.34375,30.7011719 C68.5312509,29.2949148 68.6484373,27.7714926 68.6953125,26.1308594 C69.4687539,26.458986 70.4062445,26.7988264 71.5078125,27.1503906 C71.3203116,29.1894633 71.1210948,30.7714787 70.9101562,31.8964844 C70.5820296,33.9355571 69.3515732,34.9550781 67.21875,34.9550781 L64.1953125,34.9550781 C61.6406122,34.9550781 60.3632812,33.490249 60.3632812,30.5605469 L60.3632812,18.5546875 C59.0507747,18.6250004 57.6914133,18.7070308 56.2851562,18.8007812 C56.0976553,23.898463 55.4414119,27.455068 54.3164062,29.4707031 C52.9804621,32.048841 50.4843933,34.1816322 46.828125,35.8691406 C46.3124974,35.1425745 45.7148471,34.3574261 45.0351562,33.5136719 C48.4336107,32.1308525 50.7070255,30.3144644 51.8554688,28.0644531 C52.9101615,26.2714754 53.4785152,23.2422088 53.5605469,18.9765625 C53.0800757,19.0117189 52.5937525,19.0410155 52.1015625,19.0644531 C51.093745,19.1582036 50.1562543,19.3105458 49.2890625,19.5214844 L48.09375,16.7792969 C49.1015675,16.3574198 49.9101532,15.7949254 50.5195312,15.0917969 C52.2773525,12.9941301 53.9296798,10.7089967 55.4765625,8.23632812 L47.8125,8.23632812 L47.8125,5.74023438 L59.0273438,5.74023438 C58.1484331,4.39257139 57.3164102,3.19727084 56.53125,2.15429688 L58.8515625,0.712890625 C59.742192,1.81445863 60.7382757,3.12694551 61.8398438,4.65039062 L60.1699219,5.74023438 L70.875,5.74023438 L70.875,8.23632812 L56.6015625,8.23632812 L58.5351562,9.08007812 C56.589834,11.7050913 54.6796969,14.1191296 52.8046875,16.3222656 C57.2226783,16.1699211 61.2831846,16.0117196 64.9863281,15.8476562 C64.0956987,14.4179616 63.2460978,13.111334 62.4375,11.9277344 L64.6875,10.5214844 Z M41.0273438,22.3691406 C42.9023531,22.1113268 45.3046729,21.7597679 48.234375,21.3144531 C48.0937493,22.2519578 47.976563,23.1191366 47.8828125,23.9160156 C44.9531104,24.3144551 41.6015814,24.8183563 37.828125,25.4277344 L37.265625,22.8964844 C38.7304761,21.3964769 40.470693,18.9531419 42.4863281,15.5664062 C40.0488159,15.7304696 38.2968803,15.8535152 37.2304688,15.9355469 L36.5625,13.5449219 C38.6250103,10.8261583 40.8515505,6.67776227 43.2421875,1.09960938 L45.9140625,2.15429688 C43.6406136,6.60744414 41.5664156,10.3339694 39.6914062,13.3339844 C41.2265702,13.3105468 42.6093688,13.2753909 43.8398438,13.2285156 C44.5429723,11.9746031 45.2812461,10.6152417 46.0546875,9.15039062 L48.6914062,10.3105469 C46.0195179,14.9746327 43.4648559,18.9941237 41.0273438,22.3691406 Z M36.4570312,29.7519531 C40.3476757,29.0019494 44.3671668,28.1582078 48.515625,27.2207031 C48.4218745,28.4394592 48.375,29.2832008 48.375,29.7519531 C44.1327913,30.6894578 40.4297033,31.5800739 37.265625,32.4238281 L36.4570312,29.7519531 Z M72.5976562,33.3730469 C76.8867402,32.6581996 80.3437369,31.5566481 82.96875,30.0683594 C80.9648337,28.68554 79.1484456,26.8691519 77.5195312,24.6191406 L79.3652344,23.2128906 L76.640625,23.2128906 L76.640625,8.48242188 L88.9804688,8.48242188 C88.9921876,7.47460434 89.0039062,6.39649012 89.015625,5.24804688 L73.8632812,5.24804688 L73.8632812,2.78710938 L106.136719,2.78710938 L106.136719,5.24804688 L91.7226562,5.24804688 C91.7226562,6.40820893 91.7167969,7.48632314 91.7050781,8.48242188 L103.359375,8.48242188 L103.359375,24.9355469 L100.6875,24.9355469 L100.6875,23.2128906 L90.84375,23.2128906 C90.234372,25.9902483 89.2675847,28.1288988 87.9433594,29.6289062 C92.6426016,31.3515711 99.187458,32.201172 107.578125,32.1777344 C106.992185,33.2089895 106.511721,34.1464802 106.136719,34.9902344 C96.8319847,34.7324206 89.9941625,33.5898539 85.6230469,31.5625 C82.9277209,33.3437589 79.1250246,34.7792914 74.2148438,35.8691406 C73.7460914,35.048824 73.2070343,34.2168011 72.5976562,33.3730469 Z M79.3125,14.6699219 L88.9101562,14.6699219 C88.9335939,13.5449162 88.9511718,12.2793039 88.9628906,10.8730469 L79.3125,10.8730469 L79.3125,14.6699219 Z M88.875,17.0253906 L79.3125,17.0253906 L79.3125,20.8222656 L88.5761719,20.8222656 C88.7285164,19.6738224 88.8281248,18.40821 88.875,17.0253906 Z M91.2480469,20.8222656 L100.6875,20.8222656 L100.6875,17.0253906 L91.5820312,17.0253906 C91.5234372,18.3847724 91.4121102,19.6503848 91.2480469,20.8222656 Z M100.6875,10.8730469 L91.6875,10.8730469 C91.6757812,12.2910227 91.6582032,13.5566351 91.6347656,14.6699219 L100.6875,14.6699219 L100.6875,10.8730469 Z M85.3242188,28.4511719 C86.5898501,27.3613227 87.5214814,25.6152464 88.1191406,23.2128906 L79.5058594,23.2128906 C81.123055,25.4629019 83.0624887,27.2089782 85.3242188,28.4511719 Z M128.214844,4.01757812 C133.066431,3.97070289 137.542948,3.49023895 141.644531,2.57617188 L142.558594,5.28320312 C137.917946,5.89258117 133.968766,6.29101469 130.710938,6.47851562 L130.710938,14.6699219 L143.542969,14.6699219 L143.542969,17.0605469 L138.515625,17.0605469 L138.515625,35.4824219 L135.914062,35.4824219 L135.914062,17.0605469 L130.710938,17.0605469 L130.710938,18.7832031 C130.710938,25.9785516 128.988298,31.5800581 125.542969,35.5878906 C124.980466,34.8613245 124.359378,34.111332 123.679688,33.3378906 C126.70314,30.0331866 128.214844,25.1465167 128.214844,18.6777344 L128.214844,4.01757812 Z M109.476562,19.8027344 L116.648438,19.8027344 L116.648438,16.4628906 L119.179688,16.4628906 L119.179688,19.8027344 L126.070312,19.8027344 L126.070312,22.0527344 L119.179688,22.0527344 L119.179688,31.2285156 C119.179688,33.712903 117.984387,34.9550781 115.59375,34.9550781 C114.585932,34.9550781 113.449225,34.9433595 112.183594,34.9199219 C112.089843,34.1464805 111.960938,33.2558644 111.796875,32.2480469 C113.156257,32.3886726 114.222652,32.4589844 114.996094,32.4589844 C116.097662,32.4589844 116.648438,31.8613341 116.648438,30.6660156 L116.648438,22.0527344 L109.476562,22.0527344 L109.476562,19.8027344 Z M108.492188,13.2285156 L114.152344,13.2285156 C113.156245,11.6464765 112.218754,10.2871151 111.339844,9.15039062 L113.238281,7.81445312 C114.011723,8.75195781 115.007806,10.0761633 116.226562,11.7871094 L114.240234,13.2285156 L118.880859,13.2285156 C120.15821,11.3886627 121.335932,9.57227459 122.414062,7.77929688 L124.910156,9.18554688 C123.773432,10.6503979 122.689458,11.9980407 121.658203,13.2285156 L126.984375,13.2285156 L126.984375,15.4785156 L108.492188,15.4785156 L108.492188,13.2285156 Z M109.617188,5.07226562 L117.210938,5.07226562 C116.707029,4.11132332 116.132816,3.068365 115.488281,1.94335938 L117.738281,0.888671875 C118.464847,2.08399035 119.144528,3.29100953 119.777344,4.50976562 L118.599609,5.07226562 L126.070312,5.07226562 L126.070312,7.32226562 L109.617188,7.32226562 L109.617188,5.07226562 Z M112.183594,23.6347656 L114.574219,24.7597656 C113.308587,27.4082164 112.054694,29.7988175 110.8125,31.9316406 C110.132809,31.5097635 109.359379,31.0878927 108.492188,30.6660156 C109.640631,28.8847567 110.871087,26.5410302 112.183594,23.6347656 Z M122.308594,23.8105469 C123.6211,25.5918058 124.769526,27.2324144 125.753906,28.7324219 L123.503906,30.2792969 C122.472651,28.4746004 121.382818,26.7753986 120.234375,25.1816406 L122.308594,23.8105469 Z" id="系统更新"></path>
                    <path d="M15.6796875,129.447266 L12.9375,129.447266 L12.9375,111.623047 L32.484375,111.623047 L32.484375,125.298828 C32.484375,127.830091 31.1836068,129.107422 28.5820312,129.130859 C27.1992118,129.154297 25.4296983,129.166016 23.2734375,129.166016 C23.1562494,128.416012 22.9804699,127.513677 22.7460938,126.458984 C24.7851664,126.59961 26.4492123,126.669922 27.7382812,126.669922 C29.0742254,126.669922 29.7421875,126.060553 29.7421875,124.841797 L29.7421875,123.083984 L15.6796875,123.083984 L15.6796875,129.447266 Z M9.84375,107.263672 L21.1992188,107.263672 L21.1992188,104.837891 L12.1992188,104.837891 L12.1992188,102.623047 L21.1992188,102.623047 L21.1992188,100.267578 L10.96875,100.267578 L10.96875,98.0527344 L21.1992188,98.0527344 L21.1992188,94.8886719 L24.046875,94.8886719 L24.046875,98.0527344 L34.7695312,98.0527344 L34.7695312,100.267578 L24.046875,100.267578 L24.046875,102.623047 L33.8554688,102.623047 L33.8554688,104.837891 L24.046875,104.837891 L24.046875,107.263672 L35.4726562,107.263672 L35.4726562,109.478516 L9.84375,109.478516 L9.84375,107.263672 Z M11.5664062,120.763672 C11.6367191,121.935553 11.7187495,122.955074 11.8125,123.822266 C9.28123734,125.509774 7.13672754,127.033196 5.37890625,128.392578 L3.76171875,126.072266 C4.55859773,125.322262 4.95703125,124.302741 4.95703125,123.013672 L4.95703125,109.724609 L0.66796875,109.724609 L0.66796875,107.158203 L7.62890625,107.158203 L7.62890625,123.541016 C8.94141281,122.650386 10.2538997,121.724614 11.5664062,120.763672 Z M29.7421875,113.873047 L15.6796875,113.873047 L15.6796875,116.298828 L29.7421875,116.298828 L29.7421875,113.873047 Z M15.6796875,120.904297 L29.7421875,120.904297 L29.7421875,118.478516 L15.6796875,118.478516 L15.6796875,120.904297 Z M4.640625,96.0839844 C6.56250961,97.9824314 8.26171137,99.7519449 9.73828125,101.392578 L7.27734375,103.431641 C5.66014816,101.345693 4.07813273,99.4941487 2.53125,97.8769531 L4.640625,96.0839844 Z M53.4726562,129.517578 L50.765625,129.517578 L50.765625,104.978516 L58.9570312,104.978516 L58.9570312,95.0996094 L61.7695312,95.0996094 L61.7695312,104.978516 L69.7148438,104.978516 L69.7148438,125.193359 C69.7148438,127.982436 68.4140755,129.376953 65.8125,129.376953 C64.3359301,129.376953 62.5781352,129.341797 60.5390625,129.271484 C60.4218744,128.380855 60.2460949,127.419927 60.0117188,126.388672 C61.9804786,126.529298 63.6328058,126.611328 64.96875,126.634766 C66.3281318,126.611328 67.0078125,125.943366 67.0078125,124.630859 L67.0078125,121.326172 L53.4726562,121.326172 L53.4726562,129.517578 Z M36.3515625,120.060547 C38.5312609,117.013657 40.3593676,113.087915 41.8359375,108.283203 L36.5273438,108.283203 L36.5273438,105.787109 L42.1523438,105.787109 L42.1523438,100.179688 C40.6757739,100.308594 39.1171957,100.43164 37.4765625,100.548828 C37.3593744,99.7988244 37.1953136,98.9550828 36.984375,98.0175781 C41.3203342,97.783202 45.316388,97.3964871 48.9726562,96.8574219 L49.5351562,99.4589844 C48.082024,99.6230477 46.4882899,99.7871086 44.7539062,99.9511719 L44.7539062,105.787109 L49.640625,105.787109 L49.640625,108.283203 L44.7539062,108.283203 L44.7539062,113.169922 L46.265625,111.939453 C47.4375059,113.228522 48.8085859,114.845693 50.3789062,116.791016 L48.234375,118.548828 C47.0507753,116.908195 45.8906307,115.378913 44.7539062,113.960938 L44.7539062,129.658203 L42.1523438,129.658203 L42.1523438,114.382812 C40.9218688,117.804705 39.3984466,120.705066 37.5820312,123.083984 C37.2070294,122.099604 36.7968772,121.091802 36.3515625,120.060547 Z M53.4726562,118.794922 L67.0078125,118.794922 L67.0078125,114.435547 L53.4726562,114.435547 L53.4726562,118.794922 Z M67.0078125,107.615234 L53.4726562,107.615234 L53.4726562,111.939453 L67.0078125,111.939453 L67.0078125,107.615234 Z M64.3359375,102.201172 C65.8828202,100.373038 67.3476493,98.3574329 68.7304688,96.1542969 L71.15625,97.7714844 C69.7968682,99.6230561 68.1914155,101.65038 66.3398438,103.853516 L64.3359375,102.201172 Z M49.921875,97.5957031 L51.9257812,96.1191406 C53.5664145,98.0410252 55.1367112,99.9980369 56.6367188,101.990234 L54.28125,103.642578 C52.9218682,101.533193 51.4687577,99.5175877 49.921875,97.5957031 Z M82.6171875,113.837891 L103.992188,113.837891 L103.992188,129.658203 L101.179688,129.658203 L101.179688,127.267578 L85.4296875,127.267578 L85.4296875,129.658203 L82.6171875,129.658203 L82.6171875,113.837891 Z M79.3828125,108.177734 C79.3828125,114.623079 79.0546908,118.970692 78.3984375,121.220703 C77.7421842,123.798841 76.3476669,126.646469 74.2148438,129.763672 C73.6757786,128.966793 73.0312538,128.146489 72.28125,127.302734 C73.9453208,124.935535 75.0703096,122.556653 75.65625,120.166016 C76.2421904,117.869129 76.5351562,114.494163 76.5351562,110.041016 L76.5351562,98.1933594 C86.8008326,97.8652327 95.8476171,97.1621148 103.675781,96.0839844 L105.363281,99.0019531 C95.6601077,99.986333 87.0000381,100.619139 79.3828125,100.900391 L79.3828125,105.541016 L107.226562,105.541016 L107.226562,108.177734 L79.3828125,108.177734 Z M101.179688,116.404297 L85.4296875,116.404297 L85.4296875,124.771484 L101.179688,124.771484 L101.179688,116.404297 Z M116.015625,129.517578 L113.238281,129.517578 L113.238281,119.673828 L108.773438,119.673828 L108.773438,117.248047 L113.238281,117.248047 L113.238281,103.501953 L124.628906,103.501953 L124.628906,99.5644531 L109.898438,99.5644531 L109.898438,97.1386719 L142.136719,97.1386719 L142.136719,99.5644531 L127.371094,99.5644531 L127.371094,103.501953 L138.832031,103.501953 L138.832031,117.248047 L143.4375,117.248047 L143.4375,119.673828 L138.832031,119.673828 L138.832031,125.228516 C138.832031,127.806654 137.613293,129.107422 135.175781,129.130859 C133.675774,129.154297 131.753918,129.154297 129.410156,129.130859 C129.269531,128.33398 129.093751,127.443364 128.882812,126.458984 C130.804697,126.59961 132.468743,126.669922 133.875,126.669922 C135.304695,126.716797 136.019531,126.107428 136.019531,124.841797 L136.019531,119.673828 L116.015625,119.673828 L116.015625,129.517578 Z M127.371094,117.248047 L136.019531,117.248047 L136.019531,112.642578 L127.371094,112.642578 L127.371094,117.248047 Z M116.015625,117.248047 L124.628906,117.248047 L124.628906,112.642578 L116.015625,112.642578 L116.015625,117.248047 Z M136.019531,105.787109 L127.371094,105.787109 L127.371094,110.357422 L136.019531,110.357422 L136.019531,105.787109 Z M116.015625,110.357422 L124.628906,110.357422 L124.628906,105.787109 L116.015625,105.787109 L116.015625,110.357422 Z M154.757812,102.060547 L167.589844,102.060547 C167.566406,99.8925673 167.554688,97.5371221 167.554688,94.9941406 L170.332031,94.9941406 C170.285156,97.7832171 170.273437,100.138662 170.296875,102.060547 L178.980469,102.060547 L178.980469,104.626953 L170.349609,104.626953 C170.583986,114.541065 171.691396,121.290998 173.671875,124.876953 C174.398441,126.095709 175.00781,126.705078 175.5,126.705078 C175.898439,126.705078 176.179687,126.236333 176.34375,125.298828 C176.578126,123.869133 176.753906,122.005871 176.871094,119.708984 C177.878911,120.107424 178.757809,120.412108 179.507812,120.623047 C179.203123,123.271498 178.910158,125.287102 178.628906,126.669922 C178.253904,128.638682 177.269539,129.623047 175.675781,129.623047 C174.363275,129.623047 173.062506,128.720712 171.773438,126.916016 C169.382801,123.447248 168.011721,116.017635 167.660156,104.626953 L154.757812,104.626953 L154.757812,102.060547 Z M154.125,124.630859 C155.89454,124.396483 157.746084,124.126955 159.679688,123.822266 L159.679688,112.923828 L154.652344,112.923828 L154.652344,110.427734 L166.816406,110.427734 L166.816406,112.923828 L162.28125,112.923828 L162.28125,123.417969 C164.121103,123.11328 166.03124,122.779299 168.011719,122.416016 C167.964844,123.35352 167.941406,124.267574 167.941406,125.158203 C162.808568,125.97852 158.437518,126.716794 154.828125,127.373047 L154.125,124.630859 Z M155.460938,117.494141 C155.578126,118.806647 155.707031,119.943355 155.847656,120.904297 C154.277336,122.404304 152.707039,123.962883 151.136719,125.580078 C150.410153,126.330082 149.800784,127.044918 149.308594,127.724609 L147.339844,125.474609 C148.16016,124.560542 148.570312,123.435554 148.570312,122.099609 L148.570312,109.162109 L144.492188,109.162109 L144.492188,106.666016 L151.242188,106.666016 L151.242188,121.783203 C152.507819,120.564447 153.914055,119.134774 155.460938,117.494141 Z M147.9375,95.9082031 C150.046886,97.9707134 151.89843,99.9160065 153.492188,101.744141 L151.171875,103.748047 C149.695305,101.802725 147.949229,99.7871198 145.933594,97.7011719 L147.9375,95.9082031 Z M171.667969,97.4550781 L173.285156,95.7675781 C175.160166,97.1503975 176.648432,98.3691354 177.75,99.4238281 L175.816406,101.392578 C174.527337,100.009759 173.144539,98.6972718 171.667969,97.4550781 Z M202.183594,123.154297 C202.183594,122.521481 202.406248,121.985354 202.851562,121.545898 C203.296877,121.106443 203.818356,120.886719 204.416016,120.886719 C205.037112,120.886719 205.567381,121.112302 206.006836,121.563477 C206.446291,122.014651 206.666016,122.544919 206.666016,123.154297 C206.666016,123.763675 206.449221,124.282224 206.015625,124.709961 C205.582029,125.137697 205.048831,125.351562 204.416016,125.351562 C203.771481,125.351562 203.238283,125.134768 202.816406,124.701172 C202.394529,124.267576 202.183594,123.751956 202.183594,123.154297 Z M192.375,123.154297 C192.375,122.521481 192.594724,121.985354 193.03418,121.545898 C193.473635,121.106443 194.009762,120.886719 194.642578,120.886719 C195.251956,120.886719 195.776365,121.112302 196.21582,121.563477 C196.655276,122.014651 196.875,122.544919 196.875,123.154297 C196.875,123.763675 196.658205,124.282224 196.224609,124.709961 C195.791013,125.137697 195.257816,125.351562 194.625,125.351562 C193.992184,125.351562 193.458987,125.137697 193.025391,124.709961 C192.591795,124.282224 192.375,123.763675 192.375,123.154297 Z M182.636719,123.154297 C182.636719,122.521481 182.850584,121.985354 183.27832,121.545898 C183.706057,121.106443 184.230466,120.886719 184.851562,120.886719 C185.449222,120.886719 185.973631,121.109373 186.424805,121.554688 C186.875979,122.000002 187.101562,122.5332 187.101562,123.154297 C187.101562,123.763675 186.884768,124.282224 186.451172,124.709961 C186.017576,125.137697 185.478519,125.351562 184.833984,125.351562 C184.212888,125.351562 183.691408,125.140627 183.269531,124.71875 C182.847654,124.296873 182.636719,123.775394 182.636719,123.154297 Z" id="请稍后再试…"></path>
                </g>
            </g>
        </g>
    </g>
</svg>